<?xml version="1.0" encoding="utf-8"?>
<!-- Generator: Adobe Illustrator 16.0.0, SVG Export Plug-In . SVG Version: 6.00 Build 0)  -->
<!DOCTYPE svg PUBLIC "-//W3C//DTD SVG 1.1//EN" "http://www.w3.org/Graphics/SVG/1.1/DTD/svg11.dtd">
<svg version="1.1" id="Capa_1" xmlns="http://www.w3.org/2000/svg" xmlns:xlink="http://www.w3.org/1999/xlink" x="0px" y="0px"
	 width="320px" height="274.248px" viewBox="0 2.507 320 274.248" enable-background="new 0 2.507 320 274.248"
	 xml:space="preserve">
<g>
	<g>
		<polygon fill="#392E84" points="274.046,229.672 240.349,249.127 206.651,229.672 206.651,190.766 240.349,171.305 
			274.046,190.766 		"/>
		<path fill="#FFFFFF" d="M263.554,230.617l-0.697-0.09v-22.918c0-0.463-0.375-0.842-0.838-0.842h-6.813
			c-0.463,0-0.842,0.379-0.842,0.842v23h-2.207v-14.242c0-0.463-0.381-0.842-0.844-0.842h-6.813c-0.463,0-0.838,0.379-0.838,0.842
			v14.242h-2.207v-18.135c0-0.463-0.381-0.842-0.846-0.842H233.8c-0.461,0-0.842,0.379-0.842,0.842v18.135h-2.207v-11.322
			c0-0.467-0.377-0.842-0.842-0.842h-6.809c-0.463,0-0.84,0.375-0.84,0.842v11.322h-2.211v-22.162h4.189l0.229,0.408
			c0.369,0.652,1.053,1.057,1.797,1.057c1.135,0,2.053-0.922,2.053-2.057c0-0.254-0.043-0.504-0.141-0.744l-0.188-0.482l7.264-7.264
			l0.482,0.189c0.502,0.189,1.049,0.182,1.531-0.016l0.482-0.201l7.512,7.168l-0.09,0.439c-0.033,0.139-0.049,0.281-0.049,0.424
			c0,1.131,0.926,2.057,2.059,2.057c1.135,0,2.057-0.926,2.057-2.057c0-0.273-0.053-0.539-0.158-0.789l-0.201-0.482l6.637-6.922
			l0.578,2.361l1.658-3.83l2.037-3.188l-3.189,2.037l-3.842,1.658l2.186,0.529l-6.58,6.867l-0.49-0.178
			c-0.578-0.209-1.199-0.143-1.713,0.154l-0.518,0.297l-7.408-7.063l0.176-0.49c0.088-0.229,0.125-0.459,0.125-0.695
			c0-1.131-0.92-2.057-2.057-2.057c-1.131,0-2.059,0.926-2.059,2.057c0,0.252,0.051,0.502,0.143,0.744l0.189,0.482l-7.26,7.264
			l-0.486-0.191c-0.242-0.09-0.49-0.143-0.74-0.143c-0.885,0-1.666,0.566-1.951,1.404l-0.182,0.543h-4.082v-20.559
			c0-0.33-0.27-0.602-0.598-0.602c-0.33,0-0.598,0.271-0.598,0.602v44.025c0,0.328,0.268,0.598,0.598,0.598h44.025
			c0.33,0,0.598-0.27,0.598-0.598C264.075,230.91,263.851,230.656,263.554,230.617z M247.181,206.02c0.742,0,1.344,0.605,1.344,1.35
			c0,0.738-0.602,1.344-1.344,1.344c-0.744,0-1.35-0.605-1.35-1.344C245.831,206.625,246.437,206.02,247.181,206.02z
			 M236.478,196.291c0.74,0,1.346,0.605,1.346,1.346c0,0.744-0.605,1.35-1.346,1.35c-0.742,0-1.35-0.605-1.35-1.35
			C235.128,196.896,235.735,196.291,236.478,196.291z M226.265,206.506c0.744,0,1.348,0.605,1.348,1.35
			c0,0.738-0.604,1.344-1.348,1.344s-1.354-0.605-1.354-1.344C224.911,207.111,225.521,206.506,226.265,206.506z M230.042,230.609
			h-7.072v-11.453h7.072V230.609z M240.743,230.609h-7.072v-18.268h7.072V230.609z M251.444,230.609h-7.068v-14.371h7.068V230.609z
			 M262.146,230.609h-7.07v-23.131h7.07V230.609z"/>
	</g>
	<g>
		<polygon fill="#7E4A96" points="194.036,229.676 160.335,249.127 126.638,229.676 126.638,190.766 160.335,171.305 
			194.036,190.766 		"/>
		<g>
			<path fill="#FFFFFF" d="M184.188,191.357h-46.375c-1.758,0-3.236,1.48-3.236,3.236v25.939c0,1.754,1.479,3.232,3.236,3.232h7.18
				c0,0,0.119,7.172,0.119,8.117c0,0.941,0.363,1.623,1.369,0.637c1.193-1.15,9.109-8.754,9.109-8.754h28.598
				c1.758,0,3.236-1.479,3.236-3.232v-25.939C187.425,192.838,185.946,191.357,184.188,191.357z M185.854,220.533
				c0,0.945-0.717,1.658-1.666,1.658h-29.227l-0.225,0.225c0,0-7.236,6.982-7.631,7.34c-0.393,0.355-0.404,0.189-0.416-0.301
				c-0.012-0.482-0.154-7.264-0.154-7.264h-8.723c-0.949,0-1.662-0.713-1.662-1.658v-25.939c0-0.949,0.713-1.66,1.662-1.66h46.375
				c0.949,0,1.666,0.715,1.666,1.66V220.533z"/>
			<path fill="#FFFFFF" d="M161.632,196.996c-2.068,0-3.897,0.41-5.498,1.258c-1.604,0.842-2.857,2.104-3.779,3.781
				c-0.926,1.682-1.396,3.51-1.396,5.455c0,1.777,0.416,3.414,1.227,4.926c0.813,1.508,2.049,2.646,3.719,3.414
				c1.666,0.779,3.645,1.168,5.938,1.168c2.359,0,4.365-0.463,6.01-1.373c1.439-0.809,2.5-1.893,3.189-3.305h-2.213
				c-0.73,0.93-1.688,1.6-2.879,2.066c-1.199,0.463-2.623,0.703-4.281,0.703c-1.717,0-3.26-0.273-4.596-0.822
				c-1.334-0.555-2.365-1.424-3.113-2.635c-0.732-1.195-1.104-2.527-1.104-3.988c0-1.506,0.332-2.963,0.988-4.352
				c0.676-1.396,1.658-2.469,2.959-3.229c1.308-0.77,2.912-1.162,4.791-1.162c2.211,0,3.936,0.578,5.17,1.717
				c1.238,1.16,1.852,2.596,1.852,4.297c0,0.953-0.225,1.859-0.664,2.744c-0.436,0.883-0.994,1.604-1.701,2.125
				c-0.527,0.408-0.961,0.609-1.297,0.609c-0.111,0-0.207-0.047-0.285-0.139c-0.084-0.086-0.115-0.201-0.115-0.379
				c0-0.139,0.035-0.443,0.131-0.918l1.586-7.461h-2.75l-0.264,1.146c-0.586-0.945-1.496-1.412-2.73-1.412
				c-1.736,0-3.16,0.822-4.273,2.461c-0.92,1.346-1.375,2.828-1.375,4.467c0,1.313,0.387,2.369,1.143,3.168
				c0.756,0.791,1.708,1.188,2.863,1.188c1.064,0,2.01-0.396,2.826-1.188c0.09,0.389,0.301,0.691,0.592,0.895
				c0.289,0.205,0.721,0.293,1.295,0.293c2.141,0,3.881-0.895,5.25-2.695c1.088-1.436,1.641-3.041,1.641-4.814
				c0-1.479-0.352-2.844-1.068-4.098c-0.719-1.258-1.771-2.219-3.129-2.9C164.927,197.328,163.372,196.996,161.632,196.996z
				 M160.753,203.104c0.555,0,1.014,0.227,1.373,0.648c0.369,0.416,0.555,1.01,0.555,1.793c0,0.703-0.135,1.463-0.4,2.27
				c-0.264,0.816-0.584,1.43-0.953,1.852c-0.256,0.297-0.518,0.512-0.783,0.648c-0.348,0.199-0.711,0.289-1.107,0.289
				c-0.525,0-0.973-0.193-1.338-0.609c-0.352-0.414-0.533-1.066-0.533-1.945c0-0.66,0.127-1.416,0.383-2.275
				c0.258-0.854,0.639-1.498,1.145-1.965C159.603,203.346,160.157,203.104,160.753,203.104z"/>
		</g>
	</g>
	<g>
		<polygon fill="#51AC32" points="114.092,229.676 80.393,249.127 46.695,229.676 46.695,190.766 80.393,171.305 114.092,190.766 		
			"/>
		<g>
			<polygon fill="#FFFFFF" points="93.424,205.256 93.424,205.256 93.424,205.256 			"/>
			<path fill="#FFFFFF" d="M75.623,200.504c0.02,0,0.047,0,0.066,0c-0.02,0-0.039,0-0.055,0
				C75.631,200.504,75.631,200.504,75.623,200.504z"/>
			<path fill="#FFFFFF" d="M108.869,209.553h-3.355h-0.479c-0.004-0.158-0.012-0.32-0.02-0.48c-0.008-0.162-0.02-0.32-0.031-0.482
				c-0.736-9.957-7.695-18.592-17.281-21.418c-0.158-0.051-0.324-0.102-0.486-0.15c-0.162-0.043-0.328-0.078-0.49-0.121
				c-0.016-0.166-0.039-0.34-0.07-0.512c-0.496-2.74-2.9-4.834-5.785-4.834c-1.563,0-3.021,0.605-4.121,1.705
				c-0.852,0.855-1.412,1.936-1.639,3.125c-0.031,0.17-0.055,0.346-0.074,0.516c-0.166,0.039-0.332,0.074-0.49,0.117
				c-0.166,0.049-0.328,0.1-0.496,0.146c-9.588,2.826-16.555,11.465-17.291,21.426c-0.012,0.162-0.023,0.32-0.031,0.482
				c-0.008,0.16-0.016,0.322-0.02,0.48h-0.482h-3.355c-0.439,0-0.791,0.355-0.791,0.795c0,0.434,0.352,0.791,0.791,0.791H56.4h0.568
				h0.994h45.814h0.992h0.566h3.533c0.436,0,0.791-0.357,0.791-0.791C109.66,209.908,109.305,209.553,108.869,209.553z
				 M58.766,209.553l0.027-0.48l0.004-0.027c0.008-0.15,0.023-0.301,0.035-0.455c0.729-8.986,6.924-16.67,15.441-19.34
				c0.146-0.047,0.305-0.088,0.463-0.131c0.15-0.047,0.305-0.096,0.463-0.135l0.066,0.475l0.068,0.482l2.203,15.426
				c0.055,0.387,0.395,0.684,0.787,0.684h5.092c0.391,0,0.73-0.297,0.783-0.684l2.191-15.43l0.07-0.482l0.068-0.475
				c0.154,0.043,0.309,0.088,0.463,0.131c0.158,0.047,0.313,0.088,0.471,0.135c8.518,2.666,14.721,10.352,15.447,19.344
				c0.014,0.154,0.029,0.305,0.037,0.455l0.004,0.027l0.027,0.48H58.766z M80.871,183.137c2.033,0,3.803,1.449,4.215,3.313
				c0.039,0.166,0.059,0.336,0.07,0.514c0.012,0.096,0.02,0.193,0.02,0.289l-0.004,0.074l-0.221,1.547l-0.08,0.563l-2.145,15.029
				h-3.719l-2.146-15.018l-0.084-0.557l-0.127-0.887c0-0.057-0.004-0.115-0.016-0.17c-0.004-0.012-0.012-0.023-0.012-0.037
				l-0.051-0.359c0-0.162,0.012-0.316,0.027-0.471c0.016-0.174,0.047-0.344,0.09-0.51C77.133,184.559,78.838,183.137,80.871,183.137
				z"/>
			<path fill="#FFFFFF" d="M103.777,217.188h-3.533h-0.57h-0.969c-0.004,0-0.012,0-0.02,0h-0.992h-0.566H82.43h-0.568h-0.99
				c-0.008,0-0.016,0-0.02,0h-0.98h-0.566H64.609h-0.566h-0.988h-0.99h-0.572h-3.529c-0.439,0-0.795,0.355-0.795,0.795
				c0,0.436,0.355,0.791,0.795,0.791h3.326h0.479h0.488c0,0.146,0.004,0.309,0.016,0.479c0.008,0.15,0.016,0.313,0.031,0.482
				c0.154,1.891,0.711,4.861,2.643,6.92c1.436,1.527,3.371,2.297,5.74,2.297c4.988,0,8.043-3.523,9.656-6.91
				c0.096-0.197,0.182-0.393,0.27-0.59c0.094-0.217,0.178-0.424,0.26-0.637c0.08,0.209,0.162,0.42,0.254,0.637
				c0.088,0.197,0.178,0.393,0.27,0.586c1.617,3.391,4.672,6.914,9.656,6.914c2.373,0,4.309-0.77,5.744-2.301
				c1.926-2.055,2.488-5.025,2.639-6.916c0.016-0.17,0.023-0.332,0.031-0.482c0.012-0.17,0.016-0.332,0.02-0.479h0.486h0.479h3.328
				c0.439,0,0.791-0.355,0.791-0.791C104.568,217.543,104.217,217.188,103.777,217.188z M79.662,219.402
				c-0.041,0.131-0.092,0.27-0.143,0.42c-0.922,2.563-3.41,7.551-8.834,7.551c-1.943,0-3.438-0.592-4.578-1.799
				c-1.66-1.762-2.115-4.447-2.23-6.045c-0.008-0.084-0.012-0.17-0.02-0.25l-0.016-0.301c0.074-0.059,0.143-0.127,0.201-0.205h0.57
				h14.633h0.494c0.012,0.078,0.031,0.154,0.051,0.236L79.662,219.402z M95.627,225.574c-1.131,1.207-2.631,1.799-4.576,1.799
				c-5.467,0-7.928-4.957-8.838-7.531c-0.055-0.154-0.107-0.305-0.146-0.439l-0.127-0.379c0.023-0.088,0.041-0.168,0.061-0.25h0.494
				h14.633h0.563c0.063,0.078,0.131,0.146,0.209,0.205l-0.02,0.301c0,0.08-0.008,0.166-0.016,0.25
				C97.744,221.127,97.293,223.813,95.627,225.574z"/>
		</g>
	</g>
	<g>
		<polygon fill="#51AC32" points="234.018,160.214 200.316,179.669 166.615,160.214 166.615,121.308 200.316,101.848 
			234.018,121.308 		"/>
		<g>
			<path fill="#FFFFFF" d="M202.389,116.517c-2.742,0-5.543,0.625-8.094,1.808c-6.67,3.074-10.979,9.831-10.979,17.204v2.932
				l-3.715,7.088c-0.553,0.992-0.578,2.01-0.074,2.859c0.49,0.748,1.42,1.215,2.488,1.227l1.301,0.016v6.343
				c0,2.365,1.918,4.322,4.293,4.371l4.908-0.686v5.322h22.922v-15.544l0.391-0.389c3.576-3.563,5.639-8.475,5.639-13.475
				C221.4,125.077,212.844,116.517,202.389,116.517z M214.58,148.82l-0.139,0.135v14.981h-20.855v-5.463l-5.879,0.893l-0.15-0.004
				c-1.811-0.131-3.176-1.582-3.176-3.369v-7.351h-2.256c-0.305,0-1.25,0-1.701-0.756l-0.193-0.313l-0.008-0.352
				c-0.008-0.338,0.1-0.736,0.309-1.152l0.008-0.023l3.842-7.286v-3.168c0-6.939,4.086-13.336,10.412-16.299
				c2.338-1.131,4.918-1.709,7.666-1.709c9.93,0,18.012,8.074,18.012,18C220.4,140.585,218.252,145.402,214.58,148.82z"/>
			<path fill="#FFFFFF" d="M204.75,127.328c-0.266,0.024-0.475,0.246-0.475,0.515c0,0.289,0.238,0.522,0.518,0.522
				c0.033,0,0.072-0.004,0.119-0.016l0.178-0.036h4.701l-8.988,8.985l-5.1-5.1l-4.463,4.467l-0.395,0.434
				c-0.064,0.072-0.139,0.188-0.139,0.346c0,0.283,0.229,0.514,0.518,0.514c0.158,0,0.277-0.072,0.344-0.135l0.08-0.074l4.125-4.123
				l5.096,5.104l9.664-9.668l-0.004,4.454l-0.031,0.131c-0.016,0.068-0.02,0.107-0.02,0.119c0,0.285,0.232,0.518,0.518,0.518
				c0.266,0,0.482-0.201,0.508-0.471l0.031-0.293v-6.203h-5.373v0.04l-1.357-0.023C204.785,127.333,204.77,127.333,204.75,127.328z"
				/>
		</g>
	</g>
	<g>
		<polygon fill="#392E84" points="73.759,160.218 40.058,179.669 6.36,160.218 6.36,121.308 40.058,101.848 73.759,121.308 		"/>
		<g>
			<path fill="#FFFFFF" d="M47.12,142.943H36.022c-0.379,0-0.688,0.313-0.688,0.691c0,0.381,0.309,0.686,0.688,0.686H47.12
				c0.379,0,0.688-0.305,0.688-0.686C47.808,143.256,47.499,142.943,47.12,142.943z"/>
			<path fill="#FFFFFF" d="M52.325,146.104c-5.553,0-10.07,4.523-10.07,10.075c0,5.559,4.518,10.076,10.07,10.076
				c5.559,0,10.076-4.518,10.076-10.076C62.401,150.627,57.884,146.104,52.325,146.104z M52.325,164.874
				c-4.793,0-8.695-3.9-8.695-8.695c0-4.794,3.902-8.69,8.695-8.69c4.799,0,8.699,3.896,8.699,8.69
				C61.024,160.974,57.124,164.874,52.325,164.874z"/>
			<path fill="#FFFFFF" d="M47.12,128.551H36.022c-0.379,0-0.688,0.309-0.688,0.692c0,0.38,0.309,0.688,0.688,0.688H47.12
				c0.379,0,0.688-0.309,0.688-0.688C47.808,128.86,47.499,128.551,47.12,128.551z"/>
			<path fill="#FFFFFF" d="M47.12,135.748H36.022c-0.379,0-0.688,0.309-0.688,0.691c0,0.381,0.309,0.689,0.688,0.689H47.12
				c0.379,0,0.688-0.309,0.688-0.689C47.808,136.057,47.499,135.748,47.12,135.748z"/>
			<path fill="#FFFFFF" d="M35.335,150.828c0,0.379,0.309,0.691,0.688,0.691h5.08c0.197-0.471,0.424-0.938,0.678-1.381h-5.758
				C35.644,150.139,35.335,150.451,35.335,150.828z"/>
			<path fill="#FFFFFF" d="M24.159,159.679c-1.18,0-2.141-0.957-2.141-2.135v-35.337c0-1.184,0.961-2.141,2.141-2.141h3.232h0.598
				h0.59v0.597v0.593v1.021c0,0.384,0.313,0.692,0.691,0.692h16.402c0.379,0,0.688-0.309,0.688-0.692v-1.021v-0.593v-0.597h0.598
				h0.594h3.232c1.182,0,2.135,0.957,2.135,2.141v21.829c0.637,0.035,1.27,0.115,1.895,0.25v-22.079
				c0-2.224-1.803-4.036-4.029-4.036h-3.232h-0.594H46.36v-0.593v-0.506c0-0.028-0.004-0.06-0.004-0.087
				c-0.047-0.34-0.336-0.605-0.684-0.605h-4.131l-0.127-0.431c-0.498-1.752-2.119-2.983-3.943-2.983s-3.445,1.23-3.949,2.983
				l-0.117,0.431h-4.135c-0.348,0-0.637,0.265-0.68,0.605c-0.004,0.027-0.012,0.059-0.012,0.087v0.506v0.593h-0.59h-0.598h-3.232
				c-2.223,0-4.035,1.812-4.035,4.036v35.337c0,2.223,1.813,4.031,4.035,4.031h17.271c-0.305-0.613-0.549-1.242-0.752-1.896H24.159z
				 M29.966,117.759h4.092c0.379,0,0.684-0.308,0.684-0.688c0-1.503,1.227-2.726,2.73-2.726c1.502,0,2.725,1.222,2.725,2.726
				c0,0.38,0.309,0.684,0.693,0.688h4.09v3.83H29.966V117.759z"/>
			<path fill="#FFFFFF" d="M56.661,152.248c-0.113-0.088-0.26-0.135-0.414-0.135c-0.219,0-0.424,0.1-0.555,0.277l-4.537,6.019
				l-2.195-2.916c-0.223-0.289-0.674-0.355-0.969-0.135c-0.301,0.234-0.365,0.67-0.135,0.975l2.48,3.287l0.268,0.348
				c0.139,0.174,0.334,0.281,0.551,0.281c0.213,0,0.412-0.104,0.541-0.277l0.313-0.41l0.008,0.004l4.779-6.353
				C57.03,152.912,56.966,152.477,56.661,152.248z"/>
			<path fill="#FFFFFF" d="M27.028,150.207l1.775,2.357l0.111,0.143c0.031,0.039,0.105,0.117,0.232,0.117
				c0.131,0,0.203-0.078,0.23-0.117l0.098-0.127l3.41-4.525c0.096-0.127,0.076-0.309-0.051-0.404
				c-0.072-0.047-0.135-0.055-0.178-0.055c-0.092,0-0.178,0.035-0.234,0.111l-3.275,4.348l-1.656-2.203
				c-0.057-0.072-0.143-0.115-0.234-0.115c-0.047,0-0.111,0.012-0.182,0.059c-0.076,0.064-0.104,0.146-0.107,0.189
				C26.96,150.029,26.96,150.115,27.028,150.207z"/>
			<path fill="#FFFFFF" d="M28.815,145.385l0.104,0.127c0.027,0.035,0.102,0.113,0.229,0.113c0.092,0,0.178-0.039,0.23-0.113
				l0.328-0.432l3.18-4.221c0.096-0.127,0.076-0.309-0.055-0.404c-0.068-0.051-0.131-0.059-0.174-0.059
				c-0.092,0-0.178,0.039-0.234,0.113l-3.275,4.348l-1.656-2.203c-0.057-0.074-0.146-0.115-0.234-0.115
				c-0.047,0-0.111,0.014-0.182,0.061c-0.123,0.094-0.15,0.273-0.047,0.406L28.815,145.385z"/>
			<path fill="#FFFFFF" d="M32.942,133.449c-0.004-0.043-0.029-0.127-0.107-0.186c-0.072-0.057-0.135-0.064-0.178-0.064
				c-0.092,0-0.178,0.041-0.234,0.119l-3.275,4.344l-1.656-2.199c-0.061-0.08-0.146-0.119-0.234-0.119
				c-0.047,0-0.111,0.012-0.182,0.059c-0.123,0.096-0.15,0.277-0.047,0.408l1.701,2.256l0.189,0.248
				c0.027,0.035,0.102,0.119,0.229,0.119c0.123,0,0.197-0.074,0.23-0.119l0.734-0.977l0.004,0.004l2.77-3.676
				C32.95,133.58,32.95,133.496,32.942,133.449z"/>
			<path fill="#FFFFFF" d="M28.626,130.735l0.293,0.384c0.035,0.043,0.105,0.123,0.229,0.123c0.127,0,0.203-0.088,0.23-0.123
				l0.664-0.871v0.004l2.844-3.786c0.096-0.126,0.072-0.309-0.055-0.403c-0.068-0.051-0.131-0.06-0.174-0.06
				c-0.092,0-0.178,0.044-0.234,0.115l-3.275,4.348l-1.656-2.203c-0.057-0.071-0.146-0.115-0.234-0.115
				c-0.047,0-0.111,0.012-0.182,0.06c-0.076,0.063-0.104,0.146-0.107,0.193c-0.008,0.04-0.008,0.127,0.057,0.214L28.626,130.735z"/>
		</g>
	</g>
	<g>
		<polygon fill="#7E4A96" points="314.209,160.214 280.506,179.669 246.809,160.214 246.809,121.308 280.506,101.848 
			314.209,121.308 		"/>
		<g>
			<path fill="#FFFFFF" d="M273.08,158.259c0-1.084,1.256-2.006,2.732-2.006h3.734c1.486,0,2.74,0.922,2.74,2.006v5.527h2.008
				v-5.527c0-2.211-2.133-4.016-4.748-4.016h-3.734c-2.615,0-4.74,1.805-4.74,4.016v5.527h2.008V158.259z"/>
			<path fill="#FFFFFF" d="M288.004,154.747c0-1.087,1.248-2.009,2.73-2.009h3.74c1.482,0,2.729,0.922,2.729,2.009v9.039h2.014
				v-9.039c0-2.21-2.133-4.015-4.742-4.015h-3.74c-2.615,0-4.738,1.805-4.738,4.015v9.039h2.008V154.747z"/>
			<path fill="#FFFFFF" d="M264.822,156.923h-3.736c-2.615,0-4.74,1.803-4.74,4.018v2.846h2.006v-2.846
				c0-1.088,1.25-2.01,2.734-2.01h3.736c1.486,0,2.736,0.922,2.736,2.01v2.846h2.01v-2.846
				C269.568,158.726,267.438,156.923,264.822,156.923z"/>
			<path fill="#FFFFFF" d="M292.604,122.938c-1.91,0-3.459-1.555-3.459-3.461c0-1.911,1.549-3.461,3.459-3.461
				s3.459,1.551,3.459,3.461C296.063,121.383,294.514,122.938,292.604,122.938z M292.604,117.162c-1.273,0-2.318,1.037-2.318,2.314
				c0,1.274,1.045,2.31,2.318,2.31s2.309-1.036,2.309-2.31C294.912,118.199,293.877,117.162,292.604,117.162z"/>
			<path fill="#FFFFFF" d="M288.695,147.707l-0.096-20.449l-7.023-7.034c-0.674-0.668-0.674-1.769,0-2.441
				c0.326-0.324,0.76-0.502,1.225-0.502c0.459,0,0.889,0.178,1.219,0.502l5.453,5.194c0.545,0.511,1.254,0.804,2.012,0.804h2.934
				c0.645,0,1.25-0.249,1.723-0.692l5.588-5.317c0.318-0.313,0.752-0.491,1.213-0.491c0.465,0,0.898,0.178,1.223,0.502
				c0.328,0.324,0.504,0.76,0.504,1.223s-0.176,0.898-0.508,1.218l-7.031,7.03l-0.086,20.607l-0.008,0.117
				c-0.27,0.93-1.137,1.615-2.139,1.615c-0.893,0-1.68-0.547-2.023-1.322c-0.35,0.775-1.139,1.322-2.033,1.322
				c-1.006,0-1.869-0.686-2.133-1.615 M293.814,147.184l0.008,0.211c0.016,0.576,0.496,1.047,1.074,1.047
				c0.58,0,1.064-0.471,1.076-1.047l0.008-0.301v-20.334h0.033l0.139-0.154l7.201-7.188c0.105-0.115,0.168-0.257,0.168-0.411
				c0-0.158-0.063-0.301-0.168-0.412c-0.221-0.218-0.596-0.218-0.818,0l-5.605,5.329c-0.678,0.645-1.576,1.005-2.512,1.005h-2.934
				c-1.051,0-2.045-0.4-2.801-1.12l-5.467-5.202c-0.24-0.237-0.611-0.229-0.828-0.012c-0.227,0.229-0.227,0.593,0,0.823l7.361,7.366
				l0.016,20.612c0.016,0.576,0.496,1.047,1.074,1.047c0.584,0,1.063-0.471,1.074-1.047l0.014-0.566v-10.119l1.883-0.004"/>
		</g>
	</g>
	<g>
		<polygon fill="#E85B0D" points="154.35,160.214 120.653,179.669 86.948,160.214 86.948,121.304 120.653,101.848 154.35,121.304 		
			"/>
		<polygon fill="none" points="134.618,132.746 134.618,132.746 134.618,132.746 		"/>
		<path fill="none" d="M119.5,136.779c0.123,0,0.238,0,0.361,0c-0.139,0-0.285,0-0.424,0
			C119.461,136.779,119.485,136.779,119.5,136.779z"/>
		<path fill="none" d="M119.5,128.713c0,0-0.004,0-0.008,0c0.02,0,0.041,0,0.057,0C119.538,128.713,119.522,128.713,119.5,128.713z"
			/>
		<path fill="#FFFFFF" d="M138.641,132.451c-6.943-5.656-15.234-9.845-17.625-6.909c-0.143,0.175-0.439,0.493-0.521,0.696
			c-0.186,0.125-0.166,0.148-0.305,0.327c-0.27,0.324-0.428,0.704-0.498,1.123c-0.064,0-0.123,0-0.174,0
			c-8.688,0-17.471,1.863-18.01,5.426c-5.047,0.898-8.785,2.58-8.785,5.014c0,0.23-0.027,0.66,0.031,0.875
			c-0.059,0.211-0.031,0.219-0.031,0.447c0,2.307,3.367,3.943,8.023,4.869c-1.75,0.865-2.814,1.945-2.814,3.24
			c0,0.225-0.027,0.656,0.037,0.873c-0.064,0.211-0.037,0.219-0.037,0.443c0,3.791,9.076,5.775,18.037,5.775
			c8.955,0,18.023-1.984,18.023-5.775v-0.463c1.186-0.422,2.172-0.914,2.906-1.471c4.994,3.002,9.574,4.449,11.252,2.389l0.83-1.02
			C151.375,145.372,145.59,138.109,138.641,132.451z M119.512,128.053c0.045,0,0.088,0,0.131,0c-0.131,2.384,2.24,5.978,5.666,9.574
			c-1.813,0.182-3.762,0.285-5.797,0.285c-9.086,0-16.52-2.01-17.176-4.563c-0.027-0.119-0.055-0.24-0.055-0.363v-0.002
			C102.282,130.258,109.999,128.053,119.512,128.053z M93.518,137.65c0-1.744,3.176-3.279,7.967-4.154
			c-0.004,0.234-0.023,0.633,0.037,0.84c-0.061,0.213-0.037,0.219-0.037,0.441c0,3.791,9.072,5.773,18.033,5.773
			c1.977,0,3.951-0.1,5.846-0.287c0.369-0.037,0.744-0.082,1.104-0.129c-0.359,0.047-0.734,0.092-1.104,0.129
			c-3.049,1.393-8.449,2.323-14.613,2.323c-2.697,0-5.246-0.178-7.52-0.492c-0.203-0.033-0.404-0.061-0.609-0.092
			C97.206,141.172,93.518,139.535,93.518,137.65z M127.694,139.966L127.694,139.966c-0.348,0.055-0.699,0.105-1.061,0.148
			C126.991,140.072,127.346,140.021,127.694,139.966z M115.965,152.013c-9.516,0-17.232-2.207-17.232-4.928
			c0-0.975,0.98-1.875,2.674-2.639c0.297,0.051,0.586,0.102,0.887,0.148c0.109,3.744,9.121,5.701,18.027,5.701
			c4.055,0,8.121-0.402,11.369-1.201C129.004,150.812,122.975,152.013,115.965,152.013z M133.387,145.94
			c-0.174,0.057-0.352,0.111-0.527,0.166c-3.145,0.959-7.594,1.551-12.543,1.551c-6.754,0-12.592-1.111-15.418-2.725
			c1.889,0.188,3.873,0.289,5.855,0.289c7.955,0,15.998-1.566,17.695-4.569c0.672,0.605,1.365,1.197,2.076,1.771
			c1.33,1.085,2.711,2.116,4.092,3.05C134.241,145.636,133.827,145.794,133.387,145.94z M148.665,147.429
			c-1.234,1.52-5.371,0.324-10.328-2.682c-0.432-0.262-0.863-0.535-1.303-0.822c-1.578-1.024-3.211-2.216-4.846-3.548
			c-0.428-0.346-0.838-0.693-1.242-1.041c-0.254-0.215-0.498-0.428-0.732-0.643c-0.182-0.16-0.367-0.318-0.541-0.48
			c-0.377-0.346-0.74-0.689-1.104-1.033c-3.568-3.438-6.041-6.769-6.766-9.083c-0.043-0.124-0.07-0.245-0.102-0.363
			c-0.215-0.879-0.154-1.583,0.24-2.06c1.713-2.112,9.092,1.047,16.477,7.055C145.793,138.738,150.377,145.319,148.665,147.429z"/>
	</g>
	<g>
		<polygon fill="#392E84" points="194.2,91.183 160.507,110.634 126.802,91.183 126.802,52.271 160.507,32.816 194.2,52.271 		"/>
		<path fill="none" d="M169.522,65.176c0,0.229,0.059,0.455,0.162,0.631l0.004,0.018c0.074,0.125,0.15,0.168,0.17,0.174
			c0.055-0.021,0.305-0.313,0.305-0.823c0-0.499-0.238-0.787-0.316-0.827C169.759,64.389,169.522,64.677,169.522,65.176z"/>
		<polygon fill="#FFFFFF" points="143.278,86.792 143.278,86.792 143.278,86.792 		"/>
		<path fill="#FFFFFF" d="M182.054,49.965h-41.648c-2.258,0-4.102,1.855-4.102,4.132v31.037c0,2.279,1.844,4.13,4.102,4.13h0.764
			c-1.111,1.875-2.381,3.347-4.143,3.208v0.004c-0.039-0.004-0.078-0.008-0.121-0.008c-0.381,0-0.686,0.305-0.686,0.685
			c0,0.375,0.305,0.676,0.686,0.676c0.008,0,0.012,0,0.02,0l0,0c2.717,0.218,4.422-2.069,5.818-4.565h10.982
			c1.633,2.121,3.75,4.198,7.102,4.902c0.529,0.111,1.043,0.162,1.547,0.162c1.352,0,2.598-0.396,3.727-1.179
			c1.348-0.942,2.377-2.354,3.172-3.885h12.781c2.26,0,4.104-1.851,4.104-4.13V54.097C186.157,51.82,184.313,49.965,182.054,49.965z
			 M143.483,87.899v0.004V87.899L143.483,87.899c0.035-0.059,0.07-0.13,0.104-0.19c0.973-1.851,1.977-3.766,3.064-4.079
			c2.445-0.704,3.695,0.886,5.701,3.747c0.123,0.174,0.242,0.352,0.367,0.522H143.483z M165.317,92.029
			c-1.25,0.866-2.623,1.131-4.211,0.799c-2.505-0.526-4.229-1.938-5.625-3.564h12.24C167.081,90.368,166.29,91.349,165.317,92.029z
			 M184.784,85.134c0,1.527-1.227,2.769-2.73,2.769h-12.141c0.875-2.084,1.342-4.189,1.574-5.495h0.641
			c3.727,0,6.754-3.315,6.754-7.39v-10.8c0-4.079-3.027-7.39-6.754-7.39h-2.555c-3.723,0-6.744,3.311-6.744,7.39v10.8
			c0,4.07,3.021,7.39,6.744,7.39h0.525c-0.256,1.373-0.76,3.501-1.668,5.495h-14.025c-0.328-0.435-0.633-0.878-0.934-1.305
			c-1.902-2.722-3.703-5.285-7.203-4.276c-1.646,0.471-2.73,2.547-3.893,4.751c-0.143,0.277-0.293,0.554-0.443,0.831h-1.527
			c-1.504,0-2.732-1.242-2.732-2.769V54.095c0-1.525,1.229-2.766,2.732-2.766h41.648c1.504,0,2.73,1.24,2.73,2.766V85.134z
			 M170.464,63.437c-0.775,0.231-1.35,1.125-1.35,2.198c0,0.285,0.039,0.562,0.115,0.819h-5.037v-2.235
			c0-3.323,2.414-6.025,5.377-6.025h0.895V63.437L170.464,63.437z M171.144,63.407v-5.214h0.984c2.977,0,5.385,2.702,5.385,6.025
			v2.231h-5.039c0.078-0.253,0.121-0.53,0.121-0.815C172.595,64.513,171.966,63.591,171.144,63.407z M171.903,65.635
			c0,0.851-0.479,1.57-1.049,1.57c-0.309,0-0.59-0.211-0.783-0.538c0-0.01-0.008-0.012-0.012-0.02
			c-0.162-0.279-0.262-0.633-0.262-1.013c0-0.854,0.488-1.579,1.057-1.579C171.425,64.056,171.903,64.78,171.903,65.635z
			 M169.562,67.138c0.32,0.458,0.779,0.753,1.293,0.753c0.512,0,0.965-0.295,1.287-0.753h5.371v7.88
			c0,3.319-2.412,6.021-5.385,6.021h-2.559c-2.963,0-5.377-2.702-5.377-6.021v-7.88H169.562z"/>
	</g>
	<g>
		<polygon fill="#E85B0D" points="273.884,91.183 240.185,110.634 206.485,91.183 206.485,52.267 240.185,32.816 273.884,52.267 		
			"/>
		<g>
			<polygon fill="#FFFFFF" points="222.081,74.377 222.159,74.67 222.093,74.338 			"/>
			<path fill="#FFFFFF" d="M267.722,68.376L267.552,68l-9.693-18.449c-0.244-0.453-0.977-1.517-2.33-1.517h-32.459
				c-1.531,0-2.34,1.578-2.35,1.594l-9.596,18.274c-0.115,0.229-0.363,0.829-0.148,1.387c2.395,3.855,6.516,6.156,11.035,6.156
				c4.391,0,8.457-2.222,10.883-5.942c0.152-0.423-0.07-1.08-0.164-1.28l-9.098-17.322c-0.258-0.589-0.123-1,0.035-1.242
				c0.25-0.383,0.703-0.575,1.346-0.575h11.805c0.961,0.025,1.977,0.684,1.977,2.447v40.64c-0.033,0.578-0.248,1.638-1.348,2.314
				l-5.373,3.323h14.643l-5.27-3.229c-1.248-0.771-1.492-1.784-1.527-2.31v-0.032V51.357c0-1.649,1.111-2.255,2.061-2.275h11.557
				c0.641,0.012,1.123,0.25,1.371,0.665c0.176,0.303,0.301,0.817-0.104,1.586l-9.018,17.173c-0.025,0.099-0.115,0.451,0.031,0.815
				c2.396,3.835,6.51,6.124,11.01,6.124c4.51,0,8.631-2.301,11.033-6.16C267.946,68.993,267.812,68.566,267.722,68.376z
				 M229.282,71.828c-1.727,1.236-4.369,2.732-7.107,2.838c-0.008,0.002-0.027,0.008-0.043,0.01
				c-0.035,0.006-0.064,0.01-0.094,0.014l-0.053,0.008l-0.043-0.016l-0.041,0.004c-0.09,0.012-0.182,0.02-0.268,0.02
				c-0.041,0-0.08-0.004-0.119-0.008c-0.02,0-0.043-0.004-0.066-0.004c-2.951-0.032-5.699-1.897-7.074-3.002l-0.002-0.004
				l0.156-0.19l-0.156,0.19c-0.322-0.261-0.678-0.641-0.559-0.981c0.119-0.336,0.568-0.336,0.719-0.336l14.781,0.006l0.014,0.055
				c0.203,0.077,0.484,0.238,0.529,0.532C229.929,71.391,229.444,71.719,229.282,71.828z M231.19,67.451
				c0.238,0.484,0.506,1.175,0.164,1.721c-0.107,0.174-0.373,0.469-0.91,0.469l-17.166-0.002c-0.561,0-0.838-0.295-0.953-0.471
				c-0.246-0.372-0.234-0.849,0.031-1.462l0.018-0.03l8.48-16.148c0.096-0.148,0.447-0.633,1.02-0.633
				c0.258,0,0.5,0.101,0.691,0.285h0.068l0.215,0.378L231.19,67.451z M263.606,72.075c-1.525,1.203-3.908,2.635-6.643,2.635
				l-0.143-0.004c-0.082,0.006-0.174,0.006-0.264,0.006c-3.07,0-5.654-1.81-6.916-2.89c-0.078-0.067-0.145-0.125-0.209-0.186
				l-0.084-0.073c-0.248-0.281-0.316-0.528-0.225-0.744c0.158-0.381,0.746-0.439,0.861-0.445h0.018l13.691,0.002
				c0.117,0.004,0.674,0.045,0.822,0.41c0.086,0.223,0.008,0.467-0.242,0.728c-0.055,0.047-0.082,0.071-0.107,0.099
				c-0.074,0.067-0.145,0.126-0.236,0.198c-0.039,0.034-0.09,0.075-0.139,0.115C263.722,71.982,263.659,72.032,263.606,72.075z
				 M266.099,69.023c-0.174,0.279-0.537,0.617-1.281,0.617l-15.93-0.002c-0.674,0-1.152-0.214-1.422-0.633
				c-0.27-0.421-0.264-0.965,0.016-1.573l0.152-0.292l7.986-15.209c0.146-0.263,0.539-0.847,1.201-0.847
				c0.326,0,0.793,0.145,1.16,0.851l7.979,15.179C266.231,67.652,266.472,68.414,266.099,69.023z"/>
		</g>
	</g>
	<g>
		<polygon fill="#7E4A96" points="113.643,91.183 79.946,110.634 46.245,91.183 46.245,52.273 79.946,32.816 113.643,52.273 		"/>
		<path fill="#FFFFFF" d="M96.815,47.726c-0.277-0.018-0.559-0.028-0.822-0.018c-0.297,0.006-0.574,0.04-0.807,0.065
			c-2.26,0.277-4.59,1.297-6.738,2.955c-0.174,0.13-0.285,0.32-0.313,0.534c-0.027,0.209,0.027,0.419,0.158,0.585
			c0.266,0.342,0.783,0.411,1.123,0.15c1.904-1.464,4.02-2.399,5.955-2.637c1.875-0.228,3.441,0.211,4.479,1.252
			c1.189,1.187,1.59,3.058,1.123,5.261c-0.49,2.297-1.91,4.757-3.908,6.753c-1.998,1.996-4.459,3.422-6.754,3.905
			C88.112,67,86.225,66.6,85.049,65.415c-0.324-0.32-0.584-0.7-0.807-1.157c-0.182-0.388-0.672-0.562-1.064-0.372
			c-0.395,0.19-0.561,0.667-0.375,1.064c0.281,0.596,0.66,1.129,1.119,1.586c0.771,0.771,1.74,1.298,2.885,1.566l0.791,0.182
			l-0.527,0.613c-0.066,0.075-0.131,0.148-0.201,0.222c-0.748,0.742-1.725,1.151-2.766,1.151c-1.039,0-2.018-0.409-2.762-1.151
			c-1.547-1.551-1.547-3.976,0-5.525c0.744-0.746,1.723-1.155,2.762-1.155c1.041,0,2.018,0.409,2.766,1.155
			c0.143,0.145,0.285,0.311,0.42,0.5c0.248,0.344,0.771,0.435,1.115,0.184c0.359-0.255,0.439-0.756,0.189-1.116
			c-0.162-0.226-0.359-0.453-0.602-0.694c-1.031-1.036-2.416-1.606-3.889-1.606c-1.475,0-2.852,0.57-3.885,1.606
			c-2.148,2.14-2.148,5.629,0,7.774c1.033,1.036,2.414,1.606,3.885,1.606c1.473,0,2.857-0.57,3.889-1.606
			c0.475-0.471,0.859-1.046,1.148-1.705l0.117-0.261l0.285-0.028c0.408-0.038,0.768-0.095,1.107-0.17
			c1.148-0.239,2.334-0.687,3.525-1.323l0.725-0.388v8.041L71.702,97.595L52.848,78.772l23.205-23.208h12.012l5.807,5.81
			c0.32,0.364,0.826,0.38,1.146,0.103c0.16-0.139,0.266-0.334,0.273-0.546c0.016-0.214-0.055-0.419-0.193-0.582
			c-0.023-0.028-0.051-0.056-0.08-0.079l-6.051-6.073c-0.154-0.146-0.354-0.229-0.563-0.229H75.663
			c-0.197,0.016-0.377,0.097-0.506,0.229L51.17,78.207c-0.309,0.305-0.309,0.811,0,1.12l19.963,19.966
			c0.305,0.296,0.822,0.296,1.127,0l24.006-23.989c0.145-0.145,0.229-0.35,0.225-0.564v-9.5l0.182-0.145
			c0.586-0.469,1.08-0.906,1.52-1.343c2.242-2.247,3.785-4.927,4.344-7.55c0.57-2.704,0.004-5.149-1.559-6.715
			C99.928,48.438,98.485,47.829,96.815,47.726z"/>
	</g>
	<path fill="#51AC32" d="M192.499,5.01h17.58l5.857,5.859c0.262,0.257,0.592,0.404,0.93,0.404c0.301,0,0.625-0.107,0.922-0.313
		l0.025-0.016l0.02-0.028c0.246-0.3,0.373-0.621,0.373-0.934V4.979l0.479-0.103c1.357-0.287,2.459-1.191,3.059-2.369h-33.221
		C189.246,3.982,190.749,5.01,192.499,5.01z"/>
	<path fill="#51AC32" d="M219.567,5.885l-0.15,0.055v4.043c0,0.637-0.254,1.258-0.734,1.808l-0.039,0.043l-0.053,0.04
		c-0.521,0.392-1.133,0.609-1.725,0.609c-0.658,0-1.293-0.273-1.779-0.76l-5.51-5.502h-17.078c-2.436,0-4.509-1.551-5.303-3.714
		h-9.773v10.495c0,2.089,1.496,3.924,3.553,4.363l0.477,0.099v5.004c0,0.309,0.129,0.633,0.371,0.934l0.025,0.024l0.025,0.023
		c0.293,0.198,0.621,0.309,0.92,0.309c0.338,0,0.668-0.146,0.932-0.403l5.857-5.859h17.58c2.449,0,4.441-1.994,4.441-4.442v-2.647
		l1.211,1.072v1.575c0,3.117-2.537,5.649-5.652,5.649h-17.08l-5.504,5.507c-0.49,0.49-1.125,0.755-1.785,0.755
		c-0.59,0-1.201-0.213-1.725-0.605l-0.051-0.036l-0.039-0.052c-0.48-0.542-0.732-1.171-0.732-1.804v-4.043l-0.158-0.056
		c-2.314-0.779-3.875-2.935-3.875-5.368V2.507h-10.088v19.625l33.691,19.456l33.701-19.456V2.507h-10.452
		C222.477,4.064,221.223,5.329,219.567,5.885z"/>
	<path fill="#FFFFFF" d="M192.499,6.221h17.078l5.51,5.502c0.486,0.487,1.121,0.76,1.779,0.76c0.592,0,1.203-0.218,1.725-0.609
		l0.053-0.04l0.039-0.043c0.48-0.55,0.734-1.171,0.734-1.808V5.94l0.15-0.055c1.655-0.556,2.909-1.82,3.499-3.378h-1.323
		c-0.6,1.178-1.701,2.082-3.059,2.369l-0.479,0.103v5.004c0,0.313-0.127,0.633-0.373,0.934l-0.02,0.028l-0.025,0.016
		c-0.297,0.206-0.621,0.313-0.922,0.313c-0.338,0-0.668-0.146-0.93-0.404l-5.857-5.859h-17.58c-1.75,0-3.253-1.028-3.977-2.503
		h-1.326C187.99,4.67,190.063,6.221,192.499,6.221z"/>
	<path fill="#FFFFFF" d="M180.089,18.37l0.158,0.056v4.043c0,0.633,0.252,1.262,0.732,1.804l0.039,0.052l0.051,0.036
		c0.523,0.392,1.135,0.605,1.725,0.605c0.66,0,1.295-0.265,1.785-0.755l5.504-5.507h17.08c3.115,0,5.652-2.532,5.652-5.649v-1.575
		l-1.211-1.072v2.647c0,2.448-1.992,4.442-4.441,4.442h-17.58l-5.857,5.859c-0.264,0.257-0.594,0.403-0.932,0.403
		c-0.299,0-0.627-0.111-0.92-0.309l-0.025-0.023l-0.025-0.024c-0.242-0.301-0.371-0.625-0.371-0.934v-5.004l-0.477-0.099
		c-2.057-0.439-3.553-2.274-3.553-4.363V2.507h-1.209v10.495C176.214,15.435,177.774,17.59,180.089,18.37z"/>
	<g>
		<path fill="#E85B0D" d="M115.148,6.918c1.078,1.222,2.57,1.843,4.432,1.843h0.133c1.793,0,3.303-0.637,4.367-1.843
			c1.11-1.255,1.646-2.949,1.903-4.411h-12.728C113.518,4.053,114.062,5.691,115.148,6.918z"/>
		<path fill="#E85B0D" d="M120.226,15.522c-0.113,0-0.225,0.024-0.322,0.043c-0.047,0.008-0.092,0.02-0.131,0.024
			c-0.146,0-0.371,0-0.49-0.04l-0.615-0.206l-0.75,16.952l1.719,1.539l1.801-1.531l-0.74-16.781H120.226z"/>
		<path fill="#E85B0D" d="M125.14,7.824c-1.314,1.555-3.119,2.346-5.367,2.346h-0.244c-2.254-0.063-4.066-0.851-5.385-2.35
			c-1.316-1.509-1.955-3.513-2.257-5.313h-25.44v19.625l33.697,19.456l33.701-19.456V2.507h-26.411
			C127.137,4.32,126.492,6.334,125.14,7.824z M114.64,12.14l-0.037,0.028c-0.145,0.111-3.201,2.291-7.213,3.307
			c-1.738,0.447-2.598,2.251-2.369,4.949v0.111c0,0.522,0.02,2.279,0.285,2.943c0.105,0.332-0.025,0.764-0.428,0.922l-0.033,0.016
			c-0.047,0.016-0.178,0.016-0.234,0.016c-0.254,0-0.531-0.206-0.65-0.479c-0.15-0.352-0.408-1.266-0.408-3.418l-0.002-0.04
			c-0.246-3.473,0.979-5.744,3.438-6.389c3.658-0.918,6.682-3.019,6.82-3.118c0.141-0.103,0.299-0.126,0.4-0.126
			c0.24,0,0.48,0.107,0.652,0.281C115.029,11.459,114.929,11.918,114.64,12.14z M122.833,32.6c0,0.253-0.072,0.451-0.238,0.613
			l-2.488,2.235c-0.203,0.15-0.355,0.21-0.527,0.21c-0.111,0-0.322-0.067-0.521-0.21l-2.422-2.227
			c-0.164-0.166-0.242-0.364-0.242-0.601l0.783-18.19l-0.117-0.143c-0.447-0.558-0.666-1.218-0.666-2.014
			c0-0.356,0.281-0.736,0.732-0.736c0.357,0,0.738,0.281,0.738,0.736c0,1.017,0.826,1.848,1.848,1.848
			c0.398,0,0.748-0.119,1.066-0.36l0.027-0.02c0.049-0.023,0.135-0.071,0.219-0.154c0.402-0.399,0.596-0.851,0.596-1.38
			c0-0.336,0.258-0.7,0.686-0.732c0.359,0.103,0.719,0.427,0.719,0.862c0,0.768-0.287,1.511-0.857,2.204l-0.117,0.146L122.833,32.6z
			 M135.806,20.499l-0.004,0.016l0.004,0.202c0.004,0.653,0.021,2.389-0.348,3.236l-0.025,0.075
			c-0.076,0.297-0.416,0.403-0.621,0.403c-0.059,0-0.191,0-0.229-0.012l-0.025-0.012c-0.354-0.158-0.545-0.605-0.457-0.839
			c0.275-0.648,0.297-2.437,0.297-2.971v-0.107c0.115-1.293,0.104-4.312-2.367-4.953c-2.332-0.594-4.805-1.721-7.139-3.264
			c-0.055-0.036-0.102-0.067-0.135-0.087c-0.168-0.115-0.279-0.285-0.314-0.482c-0.031-0.178,0.008-0.356,0.111-0.491l0.016-0.023
			c0.139-0.202,0.357-0.325,0.598-0.325c0.141,0,0.271,0.04,0.377,0.123l0.131,0.099h0.033c0.021,0.016,0.047,0.028,0.074,0.047
			c2.271,1.444,4.486,2.445,6.588,2.971C134.792,14.695,136.044,17.025,135.806,20.499z"/>
	</g>
	<path fill="#FFFFFF" d="M123.025,12.337c0-0.435-0.359-0.759-0.719-0.862c-0.428,0.032-0.686,0.396-0.686,0.732
		c0,0.53-0.193,0.981-0.596,1.38c-0.084,0.083-0.17,0.131-0.219,0.154l-0.027,0.02c-0.318,0.241-0.668,0.36-1.066,0.36
		c-1.021,0-1.848-0.831-1.848-1.848c0-0.455-0.381-0.736-0.738-0.736c-0.451,0-0.732,0.38-0.732,0.736
		c0,0.795,0.219,1.456,0.666,2.014l0.117,0.143l-0.783,18.19c0,0.237,0.078,0.435,0.242,0.601l2.422,2.227
		c0.199,0.143,0.41,0.21,0.521,0.21c0.172,0,0.324-0.06,0.527-0.21l2.488-2.235c0.166-0.163,0.238-0.36,0.238-0.613l-0.783-17.913
		l0.117-0.146C122.738,13.849,123.025,13.105,123.025,12.337z M119.636,33.834l-1.719-1.539l0.75-16.952l0.615,0.206
		c0.119,0.04,0.344,0.04,0.49,0.04c0.039-0.004,0.084-0.016,0.131-0.024c0.098-0.02,0.209-0.043,0.322-0.043h0.471l0.74,16.781
		L119.636,33.834z"/>
	<path fill="#FFFFFF" d="M125.708,11.087h-0.033l-0.131-0.099c-0.105-0.083-0.236-0.123-0.377-0.123
		c-0.24,0-0.459,0.123-0.598,0.325l-0.016,0.023c-0.104,0.135-0.143,0.313-0.111,0.491c0.035,0.198,0.146,0.368,0.314,0.482
		c0.033,0.02,0.08,0.051,0.135,0.087c2.334,1.543,4.807,2.67,7.139,3.264c2.471,0.641,2.482,3.659,2.367,4.953v0.107
		c0,0.534-0.021,2.322-0.297,2.971c-0.088,0.233,0.104,0.681,0.457,0.839l0.025,0.012c0.037,0.012,0.17,0.012,0.229,0.012
		c0.205,0,0.545-0.106,0.621-0.403l0.025-0.075c0.369-0.847,0.352-2.583,0.348-3.236l-0.004-0.202l0.004-0.016
		c0.238-3.473-1.014-5.803-3.436-6.393c-2.102-0.526-4.316-1.527-6.588-2.971C125.755,11.115,125.73,11.103,125.708,11.087z"/>
	<path fill="#FFFFFF" d="M119.529,10.169h0.244c2.248,0,4.053-0.791,5.367-2.346c1.352-1.489,1.997-3.504,2.294-5.317h-1.452
		c-0.258,1.462-0.793,3.156-1.903,4.411c-1.064,1.206-2.574,1.843-4.367,1.843h-0.133c-1.861,0-3.354-0.621-4.432-1.843
		c-1.086-1.227-1.63-2.865-1.893-4.411h-1.368c0.302,1.8,0.941,3.804,2.257,5.313C115.462,9.319,117.275,10.106,119.529,10.169z"/>
	<path fill="#FFFFFF" d="M114.208,10.862c-0.102,0-0.26,0.024-0.4,0.126c-0.139,0.099-3.162,2.2-6.82,3.118
		c-2.459,0.645-3.684,2.916-3.438,6.389l0.002,0.04c0,2.152,0.258,3.066,0.408,3.418c0.119,0.273,0.396,0.479,0.65,0.479
		c0.057,0,0.188,0,0.234-0.016l0.033-0.016c0.402-0.158,0.533-0.59,0.428-0.922c-0.266-0.665-0.285-2.421-0.285-2.943v-0.111
		c-0.229-2.698,0.631-4.502,2.369-4.949c4.012-1.017,7.068-3.196,7.213-3.307l0.037-0.028c0.289-0.222,0.389-0.681,0.221-0.997
		C114.689,10.969,114.449,10.862,114.208,10.862z"/>
	<g>
		<path fill="#392E84" d="M32.615,5.275h4.598c0.416,0,0.756,0.34,0.756,0.756v4.613h5.945V6.031c0-0.416,0.338-0.756,0.756-0.756
			h4.609V2.507H32.615V5.275z"/>
		<path fill="#392E84" d="M50.793,6.031c0,0.419-0.34,0.76-0.76,0.76h-4.605V11.4c0,0.419-0.338,0.759-0.758,0.759h-7.457
			c-0.42,0-0.76-0.34-0.76-0.759V6.791h-4.594c-0.418,0-0.76-0.341-0.76-0.76V2.507h-9.486v9.087c0,3.434,2.234,6.227,4.984,6.227
			h28.701c2.748,0,4.98-2.793,4.98-6.227V2.507h-9.486V6.031z"/>
		<path fill="#392E84" d="M61.799,11.594c0,4.269-2.916,7.742-6.5,7.742H26.598c-3.588,0-6.498-3.473-6.498-7.742V2.507H6.775
			v19.625l33.699,19.456L74.17,22.132V2.507H61.799V11.594z"/>
		<path fill="#FFFFFF" d="M26.598,19.335h28.701c3.584,0,6.5-3.473,6.5-7.742V2.507h-1.52v9.087c0,3.434-2.232,6.227-4.98,6.227
			H26.598c-2.75,0-4.984-2.793-4.984-6.227V2.507H20.1v9.087C20.1,15.862,23.01,19.335,26.598,19.335z"/>
	</g>
	<path fill="#FFFFFF" d="M31.859,6.791h4.594V11.4c0,0.419,0.34,0.759,0.76,0.759h7.457c0.42,0,0.758-0.34,0.758-0.759V6.791h4.605
		c0.42,0,0.76-0.341,0.76-0.76V2.507h-1.514v2.768H44.67c-0.418,0-0.756,0.34-0.756,0.756v4.613h-5.945V6.031
		c0-0.416-0.34-0.756-0.756-0.756h-4.598V2.507H31.1v3.524C31.1,6.45,31.441,6.791,31.859,6.791z"/>
	<polygon fill="#392E84" points="284.371,2.872 284.737,2.507 284.371,2.507 	"/>
	<rect x="266.797" y="2.507" fill="#7E4A96" width="3.219" height="10.712"/>
	<path fill="#7E4A96" d="M291.834,16.095c3.547,0,6.434-2.888,6.434-6.433s-2.887-6.433-6.434-6.433s-6.43,2.888-6.43,6.433
		S288.287,16.095,291.834,16.095z"/>
	<path fill="#7E4A96" d="M299.072,9.663c0,1.27-0.346,2.504-1.025,3.651l-0.225,0.388l6.701,6.702c0.537,0.538,0.537,1.412,0,1.946
		c-0.262,0.261-0.607,0.403-0.973,0.403c-0.369,0-0.713-0.142-0.979-0.403l-6.699-6.702l-0.381,0.226
		c-1.156,0.681-2.387,1.024-3.658,1.024c-3.988,0-7.232-3.248-7.232-7.235c0-3.638,2.697-6.649,6.193-7.156h-5.024
		c-0.535,0.461-1.035,0.974-1.468,1.556l-0.623,0.834V2.507h-1.262v11.405h-4.596V2.507h-7.119v11.405h-4.596V2.507h-19.332v19.625
		l33.695,19.456l33.699-19.456V2.507h-21.297C296.372,3.014,299.072,6.025,299.072,9.663z M264.844,13.912h-4.592V3.459h4.592
		V13.912z M276.559,13.912h-4.594V3.459h4.594V13.912z"/>
	<rect x="278.512" y="2.507" fill="#7E4A96" width="3.215" height="10.712"/>
	<rect x="260.939" y="4.144" fill="#7E4A96" width="3.217" height="9.075"/>
	<rect x="272.654" y="4.144" fill="#7E4A96" width="3.215" height="9.075"/>
	<path fill="#FFFFFF" d="M260.252,13.912h4.592V3.459h-4.592V13.912z M260.939,4.144h3.217v9.075h-3.217V4.144z"/>
	<polygon fill="#FFFFFF" points="270.703,13.912 270.703,2.507 270.016,2.507 270.016,13.219 266.797,13.219 266.797,2.507 
		266.107,2.507 266.107,13.912 	"/>
	<path fill="#FFFFFF" d="M271.965,13.912h4.594V3.459h-4.594V13.912z M272.654,4.144h3.215v9.075h-3.215V4.144z"/>
	<polygon fill="#FFFFFF" points="282.418,13.912 282.418,2.507 281.727,2.507 281.727,13.219 278.512,13.219 278.512,2.507 
		277.822,2.507 277.822,13.912 	"/>
	<path fill="#FFFFFF" d="M284.303,4.063c0.433-0.582,0.933-1.095,1.468-1.556h-1.033l-0.366,0.365V2.507h-0.691v2.391L284.303,4.063
		z"/>
	<path fill="#FFFFFF" d="M284.602,9.663c0,3.988,3.244,7.235,7.232,7.235c1.271,0,2.502-0.344,3.658-1.024l0.381-0.226l6.699,6.702
		c0.266,0.261,0.609,0.403,0.979,0.403c0.365,0,0.711-0.142,0.973-0.403c0.537-0.534,0.537-1.408,0-1.946l-6.701-6.702l0.225-0.388
		c0.68-1.147,1.025-2.381,1.025-3.651c0-3.638-2.7-6.649-6.199-7.156h-2.078C287.299,3.014,284.602,6.025,284.602,9.663z
		 M291.834,3.23c3.547,0,6.434,2.888,6.434,6.433s-2.887,6.433-6.434,6.433s-6.43-2.888-6.43-6.433S288.287,3.23,291.834,3.23z"/>
	<path fill="#51AC32" d="M199.817,238.014l-33.691,19.451v19.29h10.088v-4.796c0-3.117,2.52-5.652,5.609-5.652
		c0.037,0,0.07,0,0.109,0h3.283v1.207h-3.383c-2.43,0-4.41,1.993-4.41,4.445v4.796h9.773c-0.222-0.606-0.35-1.257-0.35-1.938
		v-15.342c0-3.117,2.535-5.653,5.652-5.653h25.248c0.02,0,0.051,0,0.082,0c3.098,0,5.615,2.536,5.615,5.653v15.289
		c0,0.697-0.141,1.365-0.378,1.991h10.452v-19.29L199.817,238.014z"/>
	<path fill="#51AC32" d="M212.935,266.002c-0.814,0-1.48,0.664-1.48,1.483c0,0.815,0.666,1.479,1.48,1.479
		c0.816,0,1.479-0.664,1.479-1.479C214.413,266.666,213.751,266.002,212.935,266.002z"/>
	<path fill="#51AC32" d="M222.235,259.475c0-2.449-1.975-4.447-4.406-4.447h-25.33c-2.447,0-4.441,1.998-4.441,4.447v15.342
		c0,0.697,0.177,1.35,0.465,1.938h33.221c0.309-0.606,0.492-1.28,0.492-1.991V259.475z M197.083,269.871
		c-1.316,0-2.387-1.072-2.387-2.386c0-1.317,1.07-2.39,2.387-2.39s2.387,1.072,2.387,2.39
		C199.47,268.799,198.399,269.871,197.083,269.871z M205.146,269.871c-1.318,0-2.391-1.072-2.391-2.386
		c0-1.317,1.072-2.39,2.391-2.39c1.314,0,2.387,1.072,2.387,2.39C207.532,268.799,206.46,269.871,205.146,269.871z M212.935,269.871
		c-1.316,0-2.385-1.072-2.385-2.386c0-1.317,1.068-2.39,2.385-2.39s2.389,1.072,2.389,2.39
		C215.323,268.799,214.251,269.871,212.935,269.871z"/>
	<circle fill="#51AC32" cx="205.146" cy="267.483" r="1.481"/>
	<circle fill="#51AC32" cx="197.083" cy="267.483" r="1.481"/>
	<path fill="#FFFFFF" d="M188.058,274.816v-15.342c0-2.449,1.994-4.447,4.441-4.447h25.33c2.432,0,4.406,1.998,4.406,4.447v15.289
		c0,0.711-0.184,1.385-0.492,1.991h1.323c0.237-0.626,0.378-1.294,0.378-1.991v-15.289c0-3.117-2.518-5.653-5.615-5.653
		c-0.031,0-0.063,0-0.082,0h-25.248c-3.117,0-5.652,2.536-5.652,5.653v15.342c0,0.682,0.128,1.332,0.35,1.938h1.326
		C188.234,276.166,188.058,275.514,188.058,274.816z"/>
	<path fill="#FFFFFF" d="M177.423,271.959c0-2.452,1.98-4.445,4.41-4.445h3.383v-1.207h-3.283c-0.039,0-0.072,0-0.109,0
		c-3.09,0-5.609,2.535-5.609,5.652v4.796h1.209V271.959z"/>
	<path fill="#FFFFFF" d="M197.083,265.096c-1.316,0-2.387,1.072-2.387,2.39c0,1.313,1.07,2.386,2.387,2.386s2.387-1.072,2.387-2.386
		C199.47,266.168,198.399,265.096,197.083,265.096z M197.083,268.965c-0.816,0-1.479-0.664-1.479-1.479
		c0-0.819,0.662-1.483,1.479-1.483c0.814,0,1.48,0.664,1.48,1.483C198.563,268.301,197.897,268.965,197.083,268.965z"/>
	<path fill="#FFFFFF" d="M205.146,265.096c-1.318,0-2.391,1.072-2.391,2.39c0,1.313,1.072,2.386,2.391,2.386
		c1.314,0,2.387-1.072,2.387-2.386C207.532,266.168,206.46,265.096,205.146,265.096z M205.146,268.965
		c-0.814,0-1.479-0.664-1.479-1.479c0-0.819,0.664-1.483,1.479-1.483c0.818,0,1.48,0.664,1.48,1.483
		C206.626,268.301,205.964,268.965,205.146,268.965z"/>
	<path fill="#FFFFFF" d="M212.935,265.096c-1.316,0-2.385,1.072-2.385,2.39c0,1.313,1.068,2.386,2.385,2.386
		s2.389-1.072,2.389-2.386C215.323,266.168,214.251,265.096,212.935,265.096z M212.935,268.965c-0.814,0-1.48-0.664-1.48-1.479
		c0-0.819,0.666-1.483,1.48-1.483c0.816,0,1.479,0.664,1.479,1.483C214.413,268.301,213.751,268.965,212.935,268.965z"/>
	<g>
		<path fill="#E85B0D" d="M126.132,272.514h0.006v-0.083c-0.264-6.413-5.219-6.737-6.207-6.737c-0.119,0-0.219,0.002-0.303,0.006
			h-0.242c-2.898,0-6.076,1.771-6.297,6.752l-0.004,0.059c-0.06,0.734-0.14,2.426,0.169,4.245h12.728
			c0.065-0.372,0.118-0.733,0.151-1.064C126.173,275.354,126.31,273.369,126.132,272.514z"/>
		<path fill="#E85B0D" d="M120.144,238.013l-33.697,19.454v19.288h25.44c-0.4-2.382-0.21-4.407-0.206-4.442l0.002-0.031
			c0.275-5.946,4.295-8.057,7.646-8.057c0.102,0,0.199,0.002,0.295,0.008h0.02h0.021c0.096-0.006,0.191-0.008,0.291-0.008
			c3.355,0,7.371,2.11,7.654,8.061l0.002,0.027c0.004,0.035,0.212,2.064-0.178,4.442h26.411v-19.288L120.144,238.013z
			 M129.558,266.711c0-0.353,0.271-0.722,0.707-0.737c0.99,0.129,2.096-0.316,2.957-1.175c0.789-0.791,1.242-1.883,1.242-2.994
			c0-1.148-0.43-2.185-1.242-2.995c-0.811-0.812-1.848-1.238-2.992-1.238c-1.148,0-2.182,0.427-2.996,1.238
			c-0.785,0.791-1.24,1.881-1.24,2.995c0,0.352-0.279,0.733-0.734,0.733c-0.354,0-0.734-0.279-0.734-0.733
			c0-1.533,0.592-2.968,1.662-4.041c1.055-1.055,2.475-1.668,3.975-1.728c1.539,0,2.971,0.587,4.045,1.661
			c1.051,1.055,1.666,2.473,1.727,3.979c0,1.533-0.588,2.969-1.662,4.039c-1.053,1.051-2.465,1.664-3.988,1.728
			C129.933,267.438,129.558,267.158,129.558,266.711z M141.353,260.742c0.066,0.876,0.066,1.695,0,2.51l-0.023,0.34l1.023,0.463
			l0.031,0.016c0.389,0.148,0.746,0.507,0.959,0.985c0.189,0.386,0.186,0.878-0.018,1.339l-0.703,1.729
			c-0.299,0.672-0.979,1.123-1.691,1.123c-0.238,0-0.471-0.047-0.691-0.146l-1.055-0.479l-0.238,0.297
			c-0.498,0.617-1.111,1.234-1.732,1.732l-0.297,0.238l0.488,1.071c0.189,0.388,0.186,0.882-0.008,1.325l-0.014,0.027
			c-0.148,0.393-0.508,0.744-0.951,0.941l-1.738,0.709c-0.289,0.119-0.484,0.162-0.719,0.162c-0.74,0-1.385-0.432-1.678-1.111
			l-0.65-1.635c-0.074-0.162-0.076-0.348-0.006-0.514c0.064-0.17,0.203-0.305,0.402-0.384c0.084-0.036,0.17-0.056,0.264-0.056
			c0.219,0,0.498,0.111,0.631,0.447l0.84,1.931l2.453-1.024l-0.83-1.923c-0.111-0.353-0.006-0.708,0.266-0.897
			c1.129-0.756,2.025-1.654,2.656-2.667c0.178-0.276,0.475-0.305,0.598-0.305c0.096,0,0.197,0.017,0.287,0.048l1.932,0.842
			l1.021-2.459l-1.926-0.841l-0.025-0.008c-0.301-0.11-0.473-0.455-0.4-0.795c0.275-1.298,0.275-2.583-0.002-3.821
			c-0.07-0.328,0.102-0.673,0.404-0.787l1.949-0.848l-1.021-2.456l-1.918,0.835c-0.355,0.11-0.717-0.004-0.906-0.264
			c-0.756-1.133-1.65-2.029-2.664-2.662c-0.309-0.195-0.365-0.6-0.262-0.87l0.842-1.94l-2.453-1.025l-0.84,1.93l-0.008,0.021
			c-0.094,0.245-0.354,0.419-0.635,0.419c-0.053,0-0.104-0.008-0.158-0.018c-1.289-0.271-2.598-0.271-3.822,0
			c-0.328,0.073-0.678-0.104-0.797-0.423l-0.838-1.93l-2.457,1.025l0.832,1.918c0.111,0.354,0.004,0.713-0.264,0.898
			c-1.131,0.756-2.023,1.654-2.658,2.67c-0.174,0.273-0.475,0.303-0.594,0.303c-0.1,0-0.201-0.018-0.291-0.049l-1.934-0.839
			l-1.02,2.456l1.928,0.84l0.039,0.016c0.131,0.043,0.244,0.166,0.313,0.34c0.072,0.189,0.082,0.411,0.025,0.586
			c-0.105,0.314-0.541,0.49-0.904,0.344l-1.596-0.637c-0.449-0.198-0.799-0.563-0.986-1.014c-0.186-0.45-0.182-0.938,0.016-1.384
			l0.703-1.731c0.303-0.672,0.982-1.125,1.693-1.125c0.24,0,0.473,0.051,0.689,0.146l1.074,0.49l0.236-0.324
			c0.557-0.768,1.063-1.179,1.684-1.369l0.535-0.166l-0.553-1.215c-0.191-0.431-0.195-0.919-0.012-1.37
			c0.188-0.453,0.537-0.813,0.975-1.005l1.74-0.712l0.035-0.017c0.377-0.188,0.887-0.184,1.322,0.011l0.029,0.012
			c0.391,0.146,0.744,0.509,0.951,0.97l0.463,1.021l0.34-0.025c0.887-0.059,1.688-0.059,2.51,0l0.346,0.027l0.463-1.023l0.012-0.028
			c0.146-0.394,0.512-0.749,0.986-0.964c0.377-0.188,0.871-0.191,1.336,0.017l1.758,0.718c0.391,0.143,0.744,0.506,0.959,0.985
			c0.189,0.382,0.186,0.878-0.008,1.317l-0.48,1.061l0.297,0.238c0.619,0.493,1.234,1.108,1.732,1.727l0.238,0.301l1.053-0.48
			c0.219-0.099,0.455-0.146,0.693-0.146c0.713,0,1.393,0.453,1.686,1.11l0.709,1.74l0.018,0.036c0.189,0.383,0.186,0.878-0.01,1.325
			l-0.012,0.027c-0.148,0.392-0.51,0.743-0.969,0.95l-1.023,0.463L141.353,260.742z"/>
	</g>
	<path fill="#FFFFFF" d="M135.933,261.676c-0.061-1.506-0.676-2.924-1.727-3.979c-1.074-1.074-2.506-1.661-4.045-1.661
		c-1.5,0.06-2.92,0.673-3.975,1.728c-1.07,1.073-1.662,2.508-1.662,4.041c0,0.454,0.381,0.733,0.734,0.733
		c0.455,0,0.734-0.382,0.734-0.733c0-1.114,0.455-2.204,1.24-2.995c0.814-0.812,1.848-1.238,2.996-1.238
		c1.145,0,2.182,0.427,2.992,1.238c0.813,0.811,1.242,1.847,1.242,2.995c0,1.111-0.453,2.203-1.242,2.994
		c-0.861,0.858-1.967,1.304-2.957,1.175c-0.436,0.016-0.707,0.385-0.707,0.737c0,0.447,0.375,0.728,0.725,0.731
		c1.523-0.063,2.936-0.677,3.988-1.728C135.345,264.645,135.933,263.209,135.933,261.676z"/>
	<path fill="#FFFFFF" d="M113.085,272.51l0.004-0.059c0.221-4.98,3.398-6.752,6.297-6.752h0.242
		c0.084-0.004,0.184-0.006,0.303-0.006c0.988,0,5.943,0.324,6.207,6.737v0.083h-0.006c0.178,0.855,0.041,2.841,0.002,3.177
		c-0.034,0.331-0.086,0.692-0.151,1.064h1.452c0.391-2.378,0.183-4.407,0.178-4.442l-0.002-0.027
		c-0.283-5.95-4.299-8.061-7.654-8.061c-0.1,0-0.195,0.002-0.291,0.008h-0.021h-0.02c-0.096-0.006-0.193-0.008-0.295-0.008
		c-3.352,0-7.371,2.11-7.646,8.057l-0.002,0.031c-0.004,0.035-0.195,2.061,0.206,4.442h1.368
		C112.945,274.936,113.025,273.244,113.085,272.51z"/>
	<path fill="#FFFFFF" d="M143.322,258.987l0.012-0.027c0.195-0.447,0.199-0.942,0.01-1.325l-0.018-0.036l-0.709-1.74
		c-0.293-0.657-0.973-1.11-1.686-1.11c-0.238,0-0.475,0.048-0.693,0.146l-1.053,0.48l-0.238-0.301
		c-0.498-0.618-1.113-1.233-1.732-1.727l-0.297-0.238l0.48-1.061c0.193-0.439,0.197-0.936,0.008-1.317
		c-0.215-0.479-0.568-0.843-0.959-0.985l-1.758-0.718c-0.465-0.208-0.959-0.204-1.336-0.017c-0.475,0.215-0.84,0.57-0.986,0.964
		l-0.012,0.028l-0.463,1.023L131.546,251c-0.822-0.059-1.623-0.059-2.51,0l-0.34,0.025l-0.463-1.021
		c-0.207-0.461-0.561-0.823-0.951-0.97l-0.029-0.012c-0.436-0.194-0.945-0.198-1.322-0.011l-0.035,0.017l-1.74,0.712
		c-0.438,0.191-0.787,0.552-0.975,1.005c-0.184,0.451-0.18,0.939,0.012,1.37l0.553,1.215l-0.535,0.166
		c-0.621,0.19-1.127,0.602-1.684,1.369l-0.236,0.324l-1.074-0.49c-0.217-0.096-0.449-0.146-0.689-0.146
		c-0.711,0-1.391,0.453-1.693,1.125l-0.703,1.731c-0.197,0.446-0.201,0.934-0.016,1.384c0.188,0.451,0.537,0.815,0.986,1.014
		l1.596,0.637c0.363,0.146,0.799-0.029,0.904-0.344c0.057-0.175,0.047-0.396-0.025-0.586c-0.068-0.174-0.182-0.297-0.313-0.34
		l-0.039-0.016l-1.928-0.84l1.02-2.456l1.934,0.839c0.09,0.031,0.191,0.049,0.291,0.049c0.119,0,0.42-0.029,0.594-0.303
		c0.635-1.016,1.527-1.914,2.658-2.67c0.268-0.186,0.375-0.544,0.264-0.898l-0.832-1.918l2.457-1.025l0.838,1.93
		c0.119,0.318,0.469,0.496,0.797,0.423c1.225-0.271,2.533-0.271,3.822,0c0.055,0.01,0.105,0.018,0.158,0.018
		c0.281,0,0.541-0.174,0.635-0.419l0.008-0.021l0.84-1.93l2.453,1.025l-0.842,1.94c-0.104,0.271-0.047,0.675,0.262,0.87
		c1.014,0.633,1.908,1.529,2.664,2.662c0.189,0.26,0.551,0.374,0.906,0.264l1.918-0.835l1.021,2.456l-1.949,0.848
		c-0.303,0.114-0.475,0.459-0.404,0.787c0.277,1.238,0.277,2.523,0.002,3.821c-0.072,0.34,0.1,0.685,0.4,0.795l0.025,0.008
		l1.926,0.841l-1.021,2.459l-1.932-0.842c-0.09-0.031-0.191-0.048-0.287-0.048c-0.123,0-0.42,0.028-0.598,0.305
		c-0.631,1.013-1.527,1.911-2.656,2.667c-0.271,0.189-0.377,0.545-0.266,0.897l0.83,1.923l-2.453,1.024l-0.84-1.931
		c-0.133-0.336-0.412-0.447-0.631-0.447c-0.094,0-0.18,0.02-0.264,0.056c-0.199,0.079-0.338,0.214-0.402,0.384
		c-0.07,0.166-0.068,0.352,0.006,0.514l0.65,1.635c0.293,0.68,0.938,1.111,1.678,1.111c0.234,0,0.43-0.043,0.719-0.162l1.738-0.709
		c0.443-0.197,0.803-0.549,0.951-0.941l0.014-0.027c0.193-0.443,0.197-0.938,0.008-1.325l-0.488-1.071l0.297-0.238
		c0.621-0.498,1.234-1.115,1.732-1.732l0.238-0.297l1.055,0.479c0.221,0.1,0.453,0.146,0.691,0.146c0.713,0,1.393-0.451,1.691-1.123
		l0.703-1.729c0.203-0.461,0.207-0.953,0.018-1.339c-0.213-0.479-0.57-0.837-0.959-0.985l-0.031-0.016l-1.023-0.463l0.023-0.34
		c0.066-0.814,0.066-1.634,0-2.51l-0.023-0.342l1.023-0.463C142.812,259.73,143.173,259.379,143.322,258.987z"/>
	<g>
		<path fill="#392E84" d="M40.475,238.013L6.775,257.471v19.284H20.1v-9.495c0-4.261,2.91-7.725,6.498-7.725h4.982v-2.502
			c0-1.784,1.453-3.236,3.236-3.236h12.258c1.793,0,3.244,1.452,3.244,3.236v2.502h4.98c3.584,0,6.5,3.464,6.5,7.725v9.495H74.17
			v-19.284L40.475,238.013z"/>
		<path fill="#392E84" d="M48.799,257.033c0-0.965-0.756-1.725-1.725-1.725H34.816c-0.967,0-1.723,0.76-1.723,1.725v2.502h15.705
			V257.033z"/>
		<path fill="#392E84" d="M55.299,261.053H26.598c-2.75,0-4.984,2.785-4.984,6.207v9.495H31.1v-3.934
			c0-0.419,0.342-0.755,0.76-0.755h4.594v-4.6c-0.002-0.387,0.279-0.71,0.66-0.756c0.02,0,0.039,0,0.063,0.002h7.494
			c0.42,0,0.758,0.337,0.758,0.756v4.598h4.605c0.42,0,0.76,0.336,0.76,0.755v3.934h9.486v-9.495
			C60.279,263.838,58.047,261.053,55.299,261.053z"/>
		<path fill="#392E84" d="M44.67,273.579c-0.418,0-0.756-0.343-0.756-0.758v-4.597h-5.945v4.597c0,0.415-0.34,0.758-0.756,0.758
			h-4.598v3.176h16.664v-3.176H44.67z"/>
	</g>
	<path fill="#FFFFFF" d="M21.613,267.26c0-3.422,2.234-6.207,4.984-6.207h28.701c2.748,0,4.98,2.785,4.98,6.207v9.495h1.52v-9.495
		c0-4.261-2.916-7.725-6.5-7.725h-4.98v-2.502c0-1.784-1.451-3.236-3.244-3.236H34.816c-1.783,0-3.236,1.452-3.236,3.236v2.502
		h-4.982c-3.588,0-6.498,3.464-6.498,7.725v9.495h1.514V267.26z M33.094,257.033c0-0.965,0.756-1.725,1.723-1.725h12.258
		c0.969,0,1.725,0.76,1.725,1.725v2.502H33.094V257.033z"/>
	<path fill="#FFFFFF" d="M32.615,273.579h4.598c0.416,0,0.756-0.343,0.756-0.758v-4.597h5.945v4.597
		c0,0.415,0.338,0.758,0.756,0.758h4.609v3.176h1.514v-3.934c0-0.419-0.34-0.755-0.76-0.755h-4.605v-4.598
		c0-0.419-0.338-0.756-0.758-0.756h-7.494c-0.023-0.002-0.043-0.002-0.063-0.002c-0.381,0.046-0.662,0.369-0.66,0.756v4.6h-4.594
		c-0.418,0-0.76,0.336-0.76,0.755v3.934h1.516V273.579z"/>
	<path fill="#7E4A96" d="M280.471,238.014l-33.695,19.451v19.29h19.332v-2.954h4.596v2.954h7.119v-2.954h4.596v2.954h1.262v-8.811
		h4.596v7.251l-0.209,0.092c-0.828,0.362-1.596,0.866-2.296,1.468h5.024c0.34-0.05,0.686-0.083,1.039-0.083s0.699,0.033,1.039,0.083
		h21.297v-19.29L280.471,238.014z M294.131,274.764l-0.412-0.082c-0.613-0.127-1.246-0.189-1.877-0.189
		c-0.629,0-1.266,0.063-1.893,0.189l-0.412,0.082v-10.725h4.594V274.764z M295.74,260.478l-3.459-3.543l-16.641,16.64
		c-0.76,0.764-1.994,0.764-2.758,0l-4.479-4.479l-6.428,6.43c-0.379,0.385-0.885,0.576-1.381,0.576
		c-0.498,0-1.002-0.191-1.381-0.576c-0.764-0.762-0.764-1.995,0-2.759l7.811-7.812c0.764-0.762,1.998-0.762,2.76,0l4.479,4.477
		l15.295-15.296l-3.336-3.42h9.518V260.478z"/>
	<path fill="#7E4A96" d="M290.365,254.142l-16.102,16.104l-4.881-4.885c-0.262-0.26-0.609-0.404-0.979-0.404
		c-0.365,0-0.709,0.145-0.973,0.404l-7.809,7.813c-0.26,0.258-0.404,0.605-0.404,0.974s0.145,0.712,0.404,0.974
		c0.258,0.26,0.604,0.402,0.973,0.402s0.717-0.143,0.977-0.402l6.832-6.836l4.883,4.883c0.264,0.264,0.609,0.404,0.977,0.404
		s0.713-0.141,0.973-0.404l17.049-17.051l2.885,2.949v-7.773h-7.586L290.365,254.142z"/>
	<path fill="#7E4A96" d="M293.184,273.893l0.26,0.033v-9.197h-3.213v9.197l0.258-0.033
		C291.381,273.773,292.293,273.771,293.184,273.893z"/>
	<rect x="278.512" y="274.49" fill="#7E4A96" width="3.215" height="2.265"/>
	<path fill="#7E4A96" d="M287.457,274.809l0.131-0.063v-6.113h-3.217v8.122h0.366l0.024-0.024
		C285.563,275.934,286.469,275.289,287.457,274.809z"/>
	<rect x="266.797" y="274.49" fill="#7E4A96" width="3.219" height="2.265"/>
	<path fill="#FFFFFF" d="M289.559,254.136l-15.295,15.296l-4.479-4.477c-0.762-0.762-1.996-0.762-2.76,0l-7.811,7.812
		c-0.764,0.764-0.764,1.997,0,2.759c0.379,0.385,0.883,0.576,1.381,0.576c0.496,0,1.002-0.191,1.381-0.576l6.428-6.43l4.479,4.479
		c0.764,0.764,1.998,0.764,2.758,0l16.641-16.64l3.459,3.543v-9.762h-9.518L289.559,254.136z M295.17,259.066l-2.885-2.949
		l-17.049,17.051c-0.26,0.264-0.605,0.404-0.973,0.404s-0.713-0.141-0.977-0.404l-4.883-4.883l-6.832,6.836
		c-0.26,0.26-0.607,0.402-0.977,0.402s-0.715-0.143-0.973-0.402c-0.26-0.262-0.404-0.605-0.404-0.974s0.145-0.716,0.404-0.974
		l7.809-7.813c0.264-0.26,0.607-0.404,0.973-0.404c0.369,0,0.717,0.145,0.979,0.404l4.881,4.885l16.102-16.104l-2.781-2.849h7.586
		V259.066z"/>
	<polygon fill="#FFFFFF" points="266.797,274.49 270.016,274.49 270.016,276.755 270.703,276.755 270.703,273.801 266.107,273.801 
		266.107,276.755 266.797,276.755 	"/>
	<polygon fill="#FFFFFF" points="278.512,274.49 281.727,274.49 281.727,276.755 282.418,276.755 282.418,273.801 277.822,273.801 
		277.822,276.755 278.512,276.755 	"/>
	<path fill="#FFFFFF" d="M284.371,268.633h3.217v6.113l-0.131,0.063c-0.988,0.48-1.895,1.125-2.695,1.922l-0.024,0.024h1.033
		c0.7-0.602,1.468-1.105,2.296-1.468l0.209-0.092v-7.251h-4.596v8.811h0.691V268.633z"/>
	<path fill="#FFFFFF" d="M289.537,274.764l0.412-0.082c0.627-0.127,1.264-0.189,1.893-0.189c0.631,0,1.264,0.063,1.877,0.189
		l0.412,0.082v-10.725h-4.594V274.764z M290.23,264.729h3.213v9.197l-0.26-0.033c-0.891-0.121-1.803-0.119-2.695,0l-0.258,0.033
		V264.729z"/>
	<path fill="#FFFFFF" d="M291.834,276.672c-0.354,0-0.699,0.033-1.039,0.083h2.078C292.533,276.705,292.188,276.672,291.834,276.672
		z"/>
	<polygon fill="#E85B0D" points="313.442,205.719 314.235,207.432 320,205.169 320,202.105 	"/>
	<path fill="#E85B0D" d="M297.839,229.387c-0.154,0.004-0.297-0.023-0.424-0.082c-0.297-0.143-0.482-0.455-0.49-0.828
		c-0.004-0.256,0.076-0.479,0.244-0.652c0.162-0.162,0.4-0.252,0.654-0.256L320,227.6v-0.379l-20.192-0.041
		c-0.16,0-0.301-0.023-0.428-0.086c-0.299-0.143-0.482-0.451-0.49-0.824c-0.004-0.26,0.082-0.482,0.244-0.648
		c0.168-0.166,0.406-0.262,0.654-0.266L320,225.429v-19.642l-6.054,2.377l-1.25-2.688l7.304-4.025v-29.813l-0.577-0.333
		l-33.701,19.461v38.906l33.701,19.455l0.577-0.333v-19.4L297.839,229.387z M318.106,215.063c0.262,0,0.496,0.15,0.631,0.412
		c0.148,0.391-0.012,0.795-0.387,0.98l-15.18,7.168c-0.111,0.053-0.223,0.08-0.332,0.08c-0.271,0-0.506-0.158-0.641-0.428
		c-0.092-0.186-0.111-0.375-0.047-0.555c0.066-0.178,0.201-0.324,0.381-0.41l15.242-7.164
		C317.884,215.086,317.995,215.063,318.106,215.063z M313.804,211.645c0.447,0.938,0.586,1.959,0.391,2.885
		c-0.217,1-0.789,1.771-1.615,2.164l-6.152,2.93c-0.371,0.18-0.773,0.27-1.197,0.27c-1.398,0-2.771-0.98-3.496-2.5l-3.816-8.006
		c-0.957-2.006-0.402-4.27,1.229-5.049l6.152-2.932c0.369-0.174,0.773-0.27,1.195-0.27c1.385,0,2.785,1.006,3.498,2.5
		L313.804,211.645z M294.493,205.877c-0.264,0-0.502-0.162-0.635-0.432c-0.094-0.182-0.111-0.375-0.045-0.549
		c0.061-0.18,0.199-0.334,0.381-0.416l15.238-7.164c0.111-0.057,0.225-0.08,0.338-0.08c0.26,0,0.494,0.146,0.629,0.408
		c0.148,0.391-0.014,0.799-0.387,0.984l-15.18,7.16C294.722,205.85,294.61,205.877,294.493,205.877z M296.524,214.426
		c0-0.363,0.246-0.668,0.551-0.791l-0.061-0.123c-0.182-0.428,0-0.918,0.428-1.104c0.43-0.182,0.918,0,1.1,0.432l0.799,1.713
		c0.182,0.363,0,0.918-0.367,1.162c-0.432,0.182-0.918,0-1.102-0.432l-0.064-0.121c-0.119,0.063-0.242,0.121-0.424,0.121
		C296.894,215.283,296.524,214.916,296.524,214.426z"/>
	<path fill="#E85B0D" d="M306.493,202.285c-0.248,0-0.484,0.055-0.703,0.158l-6.148,2.932c-1.063,0.506-1.369,2.08-0.686,3.52
		l3.811,8.008c0.527,1.1,1.52,1.84,2.463,1.84c0.25,0,0.488-0.053,0.703-0.154l6.152-2.932c0.498-0.238,0.848-0.721,0.984-1.369
		c0.146-0.676,0.039-1.436-0.303-2.148l-3.813-8.014C308.431,203.025,307.438,202.285,306.493,202.285z"/>
	<path fill="#FFFFFF" d="M297.808,215.162l0.064,0.121c0.184,0.432,0.67,0.613,1.102,0.432c0.367-0.244,0.549-0.799,0.367-1.162
		l-0.799-1.713c-0.182-0.432-0.67-0.613-1.1-0.432c-0.428,0.186-0.609,0.676-0.428,1.104l0.061,0.123
		c-0.305,0.123-0.551,0.428-0.551,0.791c0,0.49,0.369,0.857,0.859,0.857C297.565,215.283,297.688,215.225,297.808,215.162z"/>
	<path fill="#FFFFFF" d="M302.151,222.721c-0.064,0.18-0.045,0.369,0.047,0.555c0.135,0.27,0.369,0.428,0.641,0.428
		c0.109,0,0.221-0.027,0.332-0.08l15.18-7.168c0.375-0.186,0.535-0.59,0.387-0.98c-0.135-0.262-0.369-0.412-0.631-0.412
		c-0.111,0-0.223,0.023-0.332,0.084l-15.242,7.164C302.353,222.396,302.218,222.543,302.151,222.721z"/>
	<path fill="#FFFFFF" d="M310.399,197.645c-0.135-0.262-0.369-0.408-0.629-0.408c-0.113,0-0.227,0.023-0.338,0.08l-15.238,7.164
		c-0.182,0.082-0.32,0.236-0.381,0.416c-0.066,0.174-0.049,0.367,0.045,0.549c0.133,0.27,0.371,0.432,0.635,0.432
		c0.117,0,0.229-0.027,0.34-0.088l15.18-7.16C310.386,198.443,310.548,198.035,310.399,197.645z"/>
	<path fill="#FFFFFF" d="M299.134,225.621c-0.162,0.166-0.248,0.389-0.244,0.648c0.008,0.373,0.191,0.682,0.49,0.824
		c0.127,0.063,0.268,0.086,0.428,0.086L320,227.221v-1.792l-20.212-0.073C299.54,225.359,299.302,225.455,299.134,225.621z"/>
	<path fill="#FFFFFF" d="M297.169,227.824c-0.168,0.174-0.248,0.396-0.244,0.652c0.008,0.373,0.193,0.686,0.49,0.828
		c0.127,0.059,0.27,0.086,0.424,0.082L320,229.394V227.6l-22.177-0.031C297.569,227.572,297.331,227.662,297.169,227.824z"/>
	<polygon fill="#FFFFFF" points="313.946,208.164 320,205.787 320,205.169 314.235,207.432 313.442,205.719 320,202.105 
		320,201.451 312.696,205.477 	"/>
	<path fill="#FFFFFF" d="M306.493,201.137c-0.422,0-0.826,0.096-1.195,0.27l-6.152,2.932c-1.631,0.779-2.186,3.043-1.229,5.049
		l3.816,8.006c0.725,1.52,2.098,2.5,3.496,2.5c0.424,0,0.826-0.09,1.197-0.27l6.152-2.93c0.826-0.393,1.398-1.164,1.615-2.164
		c0.195-0.926,0.057-1.947-0.391-2.885l-3.813-8.008C309.278,202.143,307.878,201.137,306.493,201.137z M313.069,214.287
		c-0.137,0.648-0.486,1.131-0.984,1.369l-6.152,2.932c-0.215,0.102-0.453,0.154-0.703,0.154c-0.943,0-1.936-0.74-2.463-1.84
		l-3.811-8.008c-0.684-1.439-0.377-3.014,0.686-3.52l6.148-2.932c0.219-0.104,0.455-0.158,0.703-0.158
		c0.945,0,1.938,0.74,2.461,1.84l3.813,8.014C313.108,212.852,313.216,213.611,313.069,214.287z"/>
	<g>
		<path fill="#E85B0D" d="M33.12,190.766L0,171.638v29.813l21.034-11.592c0.035-0.455,0.314-0.879,0.779-1.111l0.029-0.012
			c0.18-0.08,0.371-0.119,0.572-0.119c0.557,0,1.061,0.336,1.285,0.846l2.498,5.309c0.156,0.365,0.164,0.744,0.029,1.092
			c-0.135,0.354-0.402,0.629-0.752,0.775c-0.182,0.08-0.371,0.123-0.564,0.123c-0.367,0-0.709-0.139-0.959-0.379L0,205.787v19.642
			l0.823,0.003c0.154-0.004,0.295,0.027,0.42,0.09c0.295,0.139,0.475,0.436,0.488,0.801c-0.043,0.521-0.439,0.893-0.963,0.9
			L0,227.221v0.379l2.786,0.004c0.152-0.004,0.299,0.023,0.422,0.086c0.293,0.135,0.479,0.439,0.492,0.801
			c-0.045,0.525-0.445,0.893-0.965,0.904L0,229.394v19.4l33.12-19.122V190.766z"/>
		<path fill="#E85B0D" d="M25.249,196.113c0.43-0.182,0.613-0.672,0.43-1.1l-2.506-5.32c-0.186-0.432-0.676-0.613-1.104-0.432
			c-0.367,0.186-0.551,0.553-0.426,0.918L0,202.105v3.063l24.151-9.479C24.333,196.113,24.819,196.299,25.249,196.113z"/>
		<path fill="#FFFFFF" d="M0.769,227.223c0.523-0.008,0.92-0.379,0.963-0.9c-0.014-0.365-0.193-0.662-0.488-0.801
			c-0.125-0.063-0.266-0.094-0.42-0.09L0,225.429v1.792L0.769,227.223z"/>
		<path fill="#FFFFFF" d="M2.735,229.395c0.52-0.012,0.92-0.379,0.965-0.904c-0.014-0.361-0.199-0.666-0.492-0.801
			c-0.123-0.063-0.27-0.09-0.422-0.086L0,227.6v1.794L2.735,229.395z"/>
		<path fill="#FFFFFF" d="M21.644,190.18c-0.125-0.365,0.059-0.732,0.426-0.918c0.428-0.182,0.918,0,1.104,0.432l2.506,5.32
			c0.184,0.428,0,0.918-0.43,1.1c-0.43,0.186-0.916,0-1.098-0.424L0,205.169v0.618l23.952-9.404c0.25,0.24,0.592,0.379,0.959,0.379
			c0.193,0,0.383-0.043,0.564-0.123c0.35-0.146,0.617-0.422,0.752-0.775c0.135-0.348,0.127-0.727-0.029-1.092l-2.498-5.309
			c-0.225-0.51-0.729-0.846-1.285-0.846c-0.201,0-0.393,0.039-0.572,0.119l-0.029,0.012c-0.465,0.232-0.744,0.656-0.779,1.111
			L0,201.451v0.654L21.644,190.18z"/>
	</g>
	<path fill="#51AC32" d="M4.931,80.695c0-2.516-2.051-4.562-4.564-4.562c-0.125,0-0.243,0.027-0.366,0.037v9.044
		c0.123,0.01,0.241,0.037,0.366,0.037C2.88,85.252,4.931,83.207,4.931,80.695z"/>
	<path fill="#51AC32" d="M6.638,58.947c0.34-0.35,0.516-0.813,0.496-1.304c0-0.004-0.014-0.41-0.16-1.076H6.972
		c-0.404-1.98-1.24-2.399-3.082-3.311l-0.385-0.194c-0.818,0.771-1.924,1.246-3.139,1.246c-0.125,0-0.244-0.025-0.366-0.036v5.216
		h5.347C5.845,59.489,6.298,59.297,6.638,58.947z"/>
	<path fill="#51AC32" d="M8.866,93.22c0.459-0.475,0.691-1.1,0.672-1.768c0,0-0.027-0.554-0.221-1.456
		c-0.545-2.682-1.68-3.248-4.178-4.486l-0.512-0.257c-1.123,1.041-2.609,1.686-4.262,1.686c-0.124,0-0.245-0.011-0.366-0.018v7.032
		h7.12C7.786,93.952,8.407,93.695,8.866,93.22z"/>
	<path fill="#51AC32" d="M15.321,67.482c1.857,0,3.367-1.511,3.367-3.362c0-1.855-1.51-3.365-3.367-3.365
		c-1.854,0-3.365,1.509-3.365,3.365C11.956,65.971,13.468,67.482,15.321,67.482z"/>
	<path fill="#51AC32" d="M21.921,70.987c-0.396-1.98-1.234-2.396-3.076-3.312l-0.379-0.194c-0.824,0.768-1.93,1.247-3.145,1.247
		c-1.213,0-2.316-0.479-3.145-1.247l-0.381,0.194c-1.838,0.916-2.676,1.332-3.076,3.312c-0.162,0.779-0.182,1.072-0.182,1.076
		c-0.016,0.487,0.166,0.954,0.506,1.302c0.342,0.352,0.799,0.542,1.289,0.542h9.975c0.49,0,0.949-0.19,1.287-0.542
		c0.334-0.348,0.516-0.811,0.496-1.306c0-0.004-0.02-0.407-0.166-1.072H21.921z"/>
	<path fill="#51AC32" d="M0.358,32.816L0,33.023v12.102c0.122-0.01,0.24-0.037,0.364-0.037c2.541,0,4.611,2.073,4.611,4.612
		c0,0.871-0.246,1.68-0.662,2.374l0.135,0.067c1.793,0.892,3.109,1.555,3.676,3.885c0.236,0.95,0.258,1.549,0.258,1.575
		c0.025,0.831-0.271,1.618-0.85,2.215c-0.572,0.593-1.348,0.92-2.186,0.92H0v13.728c0.122-0.007,0.243-0.019,0.366-0.019
		c3.443,0,6.252,2.801,6.252,6.25c0,1.175-0.34,2.271-0.904,3.212l0.178,0.091c2.438,1.21,4.221,2.104,4.984,5.265l0.008-0.004
		c0.309,1.286,0.34,2.101,0.34,2.136c0.041,1.124-0.367,2.192-1.143,2.995c-0.783,0.807-1.828,1.25-2.961,1.25H0v14.786l0.358,0.207
		l33.697-19.452V52.271L0.358,32.816z M3.708,62.616c-0.248-0.245-0.248-0.639,0-0.882c0.238-0.241,0.635-0.241,0.879,0l4.484,4.484
		c0.246,0.245,0.246,0.641,0,0.884c-0.117,0.121-0.279,0.182-0.436,0.182c-0.162,0-0.32-0.061-0.441-0.182L3.708,62.616z
		 M12.847,77.071L8.36,81.558c-0.123,0.123-0.281,0.186-0.443,0.186c-0.158,0-0.316-0.063-0.439-0.186
		c-0.242-0.241-0.242-0.637,0-0.882l4.486-4.482c0.242-0.25,0.641-0.25,0.883,0C13.087,76.435,13.087,76.83,12.847,77.071z
		 M22.487,74.235c-0.574,0.594-1.348,0.92-2.184,0.92h-9.971c-0.832,0-1.605-0.326-2.182-0.92c-0.578-0.597-0.883-1.38-0.855-2.213
		c0.004-0.061,0.02-0.405,0.201-1.284c0.521-2.575,1.871-3.248,3.746-4.177l0.133-0.069c-0.422-0.692-0.666-1.501-0.666-2.372
		c0-2.544,2.068-4.611,4.611-4.611c2.541,0,4.609,2.067,4.609,4.611c0,0.87-0.244,1.679-0.664,2.374l0.135,0.067
		c1.795,0.894,3.113,1.551,3.68,3.887l0.004-0.002c0.229,0.949,0.248,1.551,0.252,1.574C23.36,72.854,23.063,73.638,22.487,74.235z"
		/>
	<path fill="#51AC32" d="M3.728,49.7c0-1.853-1.506-3.366-3.361-3.366c-0.125,0-0.244,0.024-0.366,0.037v6.657
		c0.122,0.014,0.241,0.037,0.366,0.037C2.222,53.064,3.728,51.555,3.728,49.7z"/>
	<path fill="#FFFFFF" d="M11.964,76.193l-4.486,4.482c-0.242,0.246-0.242,0.641,0,0.882c0.123,0.123,0.281,0.186,0.439,0.186
		c0.162,0,0.32-0.063,0.443-0.186l4.486-4.486c0.24-0.241,0.24-0.637,0-0.878C12.604,75.944,12.206,75.944,11.964,76.193z"/>
	<path fill="#FFFFFF" d="M8.636,67.284c0.156,0,0.318-0.061,0.436-0.182c0.246-0.244,0.246-0.639,0-0.884l-4.484-4.484
		c-0.244-0.241-0.641-0.241-0.879,0c-0.248,0.244-0.248,0.637,0,0.882l4.486,4.486C8.315,67.223,8.474,67.284,8.636,67.284z"/>
	<path fill="#FFFFFF" d="M0.366,46.333c1.855,0,3.361,1.513,3.361,3.366c0,1.855-1.506,3.365-3.361,3.365
		c-0.125,0-0.244-0.023-0.366-0.037v1.246c0.123,0.01,0.241,0.036,0.366,0.036c1.215,0,2.32-0.475,3.139-1.246l0.385,0.194
		c1.842,0.912,2.678,1.331,3.082,3.311h0.002c0.146,0.667,0.16,1.072,0.16,1.076c0.02,0.491-0.156,0.954-0.496,1.304
		s-0.793,0.542-1.291,0.542H0v1.246h5.347c0.838,0,1.613-0.327,2.186-0.92c0.578-0.597,0.875-1.385,0.85-2.215
		c0-0.026-0.021-0.625-0.258-1.575c-0.566-2.33-1.883-2.993-3.676-3.885l-0.135-0.067c0.416-0.694,0.662-1.503,0.662-2.374
		c0-2.54-2.07-4.612-4.611-4.612c-0.125,0-0.242,0.027-0.364,0.037v1.246C0.122,46.357,0.241,46.333,0.366,46.333z"/>
	<path fill="#FFFFFF" d="M0.366,76.134c2.514,0,4.564,2.045,4.564,4.562c0,2.512-2.051,4.557-4.564,4.557
		c-0.125,0-0.243-0.027-0.366-0.037v1.705c0.122,0.007,0.243,0.018,0.366,0.018c1.652,0,3.139-0.645,4.262-1.686L5.14,85.51
		c2.498,1.238,3.633,1.804,4.178,4.486c0.193,0.902,0.221,1.456,0.221,1.456c0.02,0.668-0.213,1.293-0.672,1.768
		c-0.459,0.475-1.08,0.732-1.746,0.732H0v1.689h7.12c1.133,0,2.178-0.443,2.961-1.25c0.775-0.803,1.184-1.872,1.143-2.995
		c0-0.036-0.031-0.851-0.34-2.136l-0.008,0.004c-0.764-3.161-2.547-4.055-4.984-5.265l-0.178-0.091
		c0.564-0.942,0.904-2.038,0.904-3.212c0-3.45-2.809-6.25-6.252-6.25c-0.124,0-0.244,0.011-0.366,0.019v1.708
		C0.123,76.161,0.241,76.134,0.366,76.134z"/>
	<path fill="#FFFFFF" d="M23.081,70.447c-0.566-2.336-1.885-2.993-3.68-3.887l-0.135-0.067c0.42-0.694,0.664-1.503,0.664-2.374
		c0-2.544-2.068-4.611-4.609-4.611c-2.543,0-4.611,2.067-4.611,4.611c0,0.87,0.244,1.679,0.666,2.372l-0.133,0.069
		c-1.875,0.93-3.225,1.602-3.746,4.177C7.315,71.616,7.3,71.96,7.296,72.021c-0.027,0.833,0.277,1.616,0.855,2.213
		c0.576,0.594,1.35,0.92,2.182,0.92h9.971c0.836,0,1.609-0.326,2.184-0.92c0.576-0.597,0.873-1.38,0.85-2.215
		c-0.004-0.023-0.023-0.625-0.252-1.574L23.081,70.447z M15.321,60.755c1.857,0,3.367,1.509,3.367,3.365
		c0,1.852-1.51,3.362-3.367,3.362c-1.854,0-3.365-1.511-3.365-3.362C11.956,62.264,13.468,60.755,15.321,60.755z M21.595,73.365
		c-0.338,0.352-0.797,0.542-1.287,0.542h-9.975c-0.49,0-0.947-0.19-1.289-0.542c-0.34-0.348-0.521-0.815-0.506-1.302
		c0-0.004,0.02-0.296,0.182-1.076c0.4-1.98,1.238-2.396,3.076-3.312l0.381-0.194c0.828,0.768,1.932,1.247,3.145,1.247
		c1.215,0,2.32-0.479,3.145-1.247l0.379,0.194c1.842,0.916,2.68,1.332,3.076,3.312h0.004c0.146,0.665,0.166,1.068,0.166,1.072
		C22.11,72.554,21.929,73.017,21.595,73.365z"/>
	<g>
		<path fill="#51AC32" d="M317.219,53.063l-0.379,0.194c-1.84,0.912-2.68,1.331-3.078,3.311c-0.16,0.779-0.174,1.076-0.174,1.076
			c-0.016,0.487,0.162,0.954,0.502,1.304s0.797,0.542,1.289,0.542H320v-5.216C318.931,54.187,317.962,53.754,317.219,53.063z"/>
		<path fill="#51AC32" d="M316.107,85.249l-0.518,0.265c-2.484,1.234-3.629,1.8-4.17,4.482c-0.217,1.057-0.236,1.46-0.236,1.464
			c-0.021,0.657,0.225,1.286,0.68,1.76c0.463,0.475,1.078,0.732,1.752,0.732H320V86.92C318.5,86.832,317.139,86.214,316.107,85.249z
			"/>
		<path fill="#51AC32" d="M317.002,49.7c0,1.73,1.318,3.142,2.998,3.328v-6.657C318.32,46.557,317.002,47.972,317.002,49.7z"/>
		<path fill="#51AC32" d="M315.811,80.695c0,2.386,1.853,4.33,4.189,4.52v-9.044C317.663,76.361,315.811,78.305,315.811,80.695z"/>
		<path fill="#51AC32" d="M311.68,73.365c0.342-0.348,0.518-0.811,0.5-1.306c0-0.004-0.02-0.407-0.162-1.072
			c-0.404-1.982-1.244-2.396-3.082-3.312l-0.381-0.194c-0.822,0.768-1.93,1.247-3.146,1.247c-1.213,0-2.318-0.479-3.141-1.247
			l-0.385,0.194c-1.838,0.916-2.676,1.33-3.078,3.312c-0.158,0.779-0.172,1.072-0.172,1.076c-0.016,0.487,0.162,0.954,0.504,1.302
			c0.34,0.352,0.795,0.542,1.289,0.542h9.967C310.885,73.907,311.344,73.717,311.68,73.365z"/>
		<path fill="#51AC32" d="M305.412,67.482c1.854,0,3.363-1.511,3.363-3.362c0-1.855-1.51-3.365-3.363-3.365
			c-1.857,0-3.369,1.509-3.369,3.365C302.043,65.971,303.555,67.482,305.412,67.482z"/>
		<path fill="#51AC32" d="M313.615,95.641c-1.129,0-2.18-0.443-2.967-1.242c-0.779-0.811-1.188-1.875-1.152-2.999
			c0-0.087,0.02-0.55,0.268-1.74c0.707-3.493,2.537-4.399,5.074-5.661l0.182-0.091c-0.568-0.942-0.898-2.038-0.898-3.212
			c0-3.326,2.604-6.041,5.879-6.232V60.735h-4.621c-0.834,0-1.609-0.327-2.186-0.92c-0.576-0.595-0.881-1.381-0.852-2.211
			c0.004-0.063,0.021-0.407,0.199-1.286c0.52-2.58,1.873-3.246,3.742-4.174l0.137-0.071c-0.424-0.694-0.666-1.503-0.666-2.374
			c0-2.415,1.879-4.385,4.246-4.575V33.023l-33.34,19.249v38.911L320,110.427V95.641H313.615z M311.658,66.218l4.484-4.484
			c0.248-0.241,0.641-0.241,0.883,0c0.242,0.244,0.242,0.637,0,0.882l-4.488,4.486c-0.121,0.121-0.279,0.182-0.441,0.182
			c-0.158,0-0.314-0.061-0.438-0.182C311.414,66.859,311.414,66.463,311.658,66.218z M298.242,74.235
			c-0.578-0.597-0.885-1.38-0.855-2.215c0-0.059,0.02-0.403,0.199-1.286c0.52-2.575,1.875-3.244,3.746-4.173l0.131-0.069
			c-0.416-0.694-0.662-1.505-0.662-2.372c0-2.544,2.07-4.611,4.607-4.611c2.543,0,4.613,2.067,4.613,4.611
			c0,0.866-0.246,1.679-0.664,2.372l0.131,0.067c1.797,0.896,3.113,1.553,3.68,3.887h0.006c0.227,0.945,0.252,1.547,0.252,1.574
			c0.027,0.831-0.271,1.618-0.848,2.211c-0.574,0.594-1.35,0.922-2.186,0.922h-9.967C299.596,75.153,298.818,74.829,298.242,74.235z
			 M307.83,76.193c0.24-0.25,0.639-0.25,0.879,0l4.484,4.482c0.248,0.246,0.248,0.641,0,0.882c-0.121,0.123-0.279,0.186-0.438,0.186
			c-0.162,0-0.32-0.063-0.443-0.186l-4.482-4.486C307.586,76.83,307.586,76.435,307.83,76.193z"/>
		<path fill="#FFFFFF" d="M312.096,67.284c0.162,0,0.32-0.061,0.441-0.182l4.488-4.486c0.242-0.245,0.242-0.639,0-0.882
			c-0.242-0.241-0.635-0.241-0.883,0l-4.484,4.484c-0.244,0.245-0.244,0.641,0,0.884C311.781,67.223,311.938,67.284,312.096,67.284z
			"/>
		<path fill="#FFFFFF" d="M312.756,81.744c0.158,0,0.316-0.063,0.438-0.186c0.248-0.241,0.248-0.637,0-0.882l-4.484-4.482
			c-0.24-0.25-0.639-0.25-0.879,0c-0.244,0.241-0.244,0.637,0,0.878l4.482,4.486C312.436,81.68,312.594,81.744,312.756,81.744z"/>
		<path fill="#FFFFFF" d="M315.754,49.7c0,0.871,0.242,1.68,0.666,2.374l-0.137,0.071c-1.869,0.928-3.223,1.594-3.742,4.174
			c-0.178,0.878-0.195,1.222-0.199,1.286c-0.029,0.831,0.275,1.616,0.852,2.211c0.576,0.593,1.352,0.92,2.186,0.92H320v-1.246
			h-4.621c-0.492,0-0.949-0.192-1.289-0.542s-0.518-0.817-0.502-1.304c0,0,0.014-0.297,0.174-1.076
			c0.398-1.98,1.238-2.399,3.078-3.311l0.379-0.194c0.743,0.692,1.712,1.125,2.781,1.21v-1.246c-1.68-0.186-2.998-1.598-2.998-3.328
			c0-1.728,1.318-3.143,2.998-3.329v-1.246C317.633,45.314,315.754,47.285,315.754,49.7z"/>
		<path fill="#FFFFFF" d="M314.121,80.695c0,1.175,0.33,2.271,0.898,3.212l-0.182,0.091c-2.537,1.262-4.367,2.168-5.074,5.661
			c-0.248,1.19-0.268,1.653-0.268,1.74c-0.035,1.124,0.373,2.188,1.152,2.999c0.787,0.799,1.838,1.242,2.967,1.242H320v-1.689
			h-6.385c-0.674,0-1.289-0.257-1.752-0.732c-0.455-0.475-0.701-1.104-0.68-1.76c0-0.004,0.02-0.407,0.236-1.464
			c0.541-2.682,1.686-3.248,4.17-4.482l0.518-0.265c1.031,0.966,2.393,1.583,3.893,1.671v-1.705c-2.337-0.19-4.189-2.134-4.189-4.52
			c0-2.391,1.853-4.334,4.189-4.524v-1.708C316.725,74.654,314.121,77.369,314.121,80.695z"/>
		<path fill="#FFFFFF" d="M312.578,74.231c0.576-0.593,0.875-1.38,0.848-2.211c0-0.027-0.025-0.629-0.252-1.574h-0.006
			c-0.566-2.334-1.883-2.991-3.68-3.887l-0.131-0.067c0.418-0.692,0.664-1.505,0.664-2.372c0-2.544-2.07-4.611-4.613-4.611
			c-2.537,0-4.607,2.067-4.607,4.611c0,0.866,0.246,1.677,0.662,2.372l-0.131,0.069c-1.871,0.93-3.227,1.598-3.746,4.173
			c-0.18,0.882-0.199,1.227-0.199,1.286c-0.029,0.835,0.277,1.618,0.855,2.215c0.576,0.594,1.354,0.918,2.184,0.918h9.967
			C311.229,75.153,312.004,74.825,312.578,74.231z M305.412,60.755c1.854,0,3.363,1.509,3.363,3.365c0,1.852-1.51,3.362-3.363,3.362
			c-1.857,0-3.369-1.511-3.369-3.362C302.043,62.264,303.555,60.755,305.412,60.755z M299.137,73.365
			c-0.342-0.348-0.52-0.815-0.504-1.302c0-0.004,0.014-0.296,0.172-1.076c0.402-1.982,1.24-2.396,3.078-3.312l0.385-0.194
			c0.822,0.768,1.928,1.247,3.141,1.247c1.217,0,2.324-0.479,3.146-1.247l0.381,0.194c1.838,0.916,2.678,1.33,3.082,3.312
			c0.143,0.665,0.162,1.068,0.162,1.072c0.018,0.495-0.158,0.958-0.5,1.306c-0.336,0.352-0.795,0.542-1.287,0.542h-9.967
			C299.932,73.907,299.477,73.717,299.137,73.365z"/>
	</g>
</g>
</svg>
